<svg width="94" height="83" viewBox="0 0 94 83" fill="none" xmlns="http://www.w3.org/2000/svg">
<rect x="0.5" width="93" height="83" fill="white"/>
<path d="M3 51.8391H26.0697L14.5349 31.1988L3 51.8391ZM20.9272 5H79.8922V24.8024C79.8922 24.8024 63.6656 26.6416 63.6656 41.9277C63.6656 57.2138 79.8922 59.38 79.8922 59.38V78.7737H21.2755V59.38H39.3666L20.9272 25.8855V5V5ZM90.3412 41.8868C90.3412 46.7097 86.3255 50.6334 81.3879 50.6334C76.4502 50.6334 72.4345 46.7301 72.4345 41.8868C72.4345 37.0639 76.4502 33.1402 81.3879 33.1402C86.3255 33.1607 90.3412 37.0639 90.3412 41.8868Z" stroke="#459C9D" stroke-width="2" stroke-miterlimit="10" stroke-linecap="round" stroke-linejoin="round"/>
</svg>
