<svg width="94" height="83" viewBox="0 0 94 83" fill="none" xmlns="http://www.w3.org/2000/svg">
<g clip-path="url(#clip0)">
<rect x="0.5" width="93" height="83" fill="white"/>
<path d="M108.956 41.478C108.956 75.4412 81.423 102.956 47.4781 102.956C13.5333 102.956 -14 75.4229 -14 41.478C-14 7.53322 13.515 -20 47.4781 -20C81.4413 -20 108.956 7.5149 108.956 41.478Z" fill="white"/>
<path d="M10.4002 76.7422H87.1745" stroke="#459C9D" stroke-width="2" stroke-miterlimit="10" stroke-linecap="round" stroke-linejoin="round"/>
<path d="M35.6448 31.0552C35.6448 44.7577 32.0178 55.8772 27.5297 55.8772C23.0415 55.8772 19.4143 44.776 19.4143 31.0552C19.4143 17.3527 23.0415 6.25146 27.5297 6.25146C32.0178 6.25146 35.6448 17.3527 35.6448 31.0552Z" fill="white"/>
<path d="M27.5105 55.8773C31.9924 55.8773 35.6256 44.7641 35.6256 31.0553C35.6256 17.3465 31.9924 6.23328 27.5105 6.23328C23.0286 6.23328 19.3952 17.3465 19.3952 31.0553C19.3952 44.7641 23.0286 55.8773 27.5105 55.8773Z" stroke="#459C9D" stroke-width="2" stroke-miterlimit="10" stroke-linecap="round" stroke-linejoin="round"/>
<path d="M27.5656 56.1155V76.6875" stroke="#459C9D" stroke-width="2" stroke-miterlimit="10" stroke-linecap="round" stroke-linejoin="round"/>
<path d="M22.1067 36.4218C22.1067 48.5122 18.9009 58.3128 14.944 58.3128C10.9871 58.3128 7.78137 48.5122 7.78137 36.4218C7.78137 24.3313 10.9871 14.5308 14.944 14.5308C18.9009 14.5308 22.1067 24.3313 22.1067 36.4218Z" fill="white"/>
<path d="M22.1067 36.4218C22.1067 48.5122 18.9009 58.3128 14.944 58.3128C10.9871 58.3128 7.78137 48.5122 7.78137 36.4218C7.78137 24.3313 10.9871 14.5308 14.944 14.5308C18.9009 14.5308 22.1067 24.3313 22.1067 36.4218Z" stroke="#459C9D" stroke-width="2" stroke-miterlimit="10" stroke-linecap="round" stroke-linejoin="round"/>
<path d="M15.0168 58.5518V76.6874" stroke="#459C9D" stroke-width="2" stroke-miterlimit="10" stroke-linecap="round" stroke-linejoin="round"/>
<path d="M68.8929 56.1155H34.4717V66.5206H68.8929V56.1155Z" fill="white"/>
<path d="M68.8929 56.1155H34.4717V66.5206H68.8929V56.1155Z" stroke="#459C9D" stroke-width="2" stroke-miterlimit="10" stroke-linecap="round" stroke-linejoin="round"/>
<path d="M34.4717 61.2633H68.8929" stroke="#459C9D" stroke-width="2" stroke-miterlimit="10" stroke-linecap="round" stroke-linejoin="round"/>
<path d="M34.3802 66.7585V76.6874" stroke="#459C9D" stroke-width="2" stroke-miterlimit="10" stroke-linecap="round" stroke-linejoin="round"/>
<path d="M68.966 66.7585V76.6874" stroke="#459C9D" stroke-width="2" stroke-miterlimit="10" stroke-linecap="round" stroke-linejoin="round"/>
<path d="M80.012 76.6874V25.2297L70.2848 20.1188L68.7094 23.5261L80.012 29.3515V25.2297" fill="white"/>
<path d="M80.012 76.6874V25.2297L70.2848 20.1188L68.7094 23.5261L80.012 29.3515V25.2297" stroke="#459C9D" stroke-width="2" stroke-miterlimit="10" stroke-linecap="round" stroke-linejoin="round"/>
</g>
<defs>
<clipPath id="clip0">
<rect x="0.5" width="93" height="83" fill="white"/>
</clipPath>
</defs>
</svg>
