<svg width="94" height="83" viewBox="0 0 94 83" fill="none" xmlns="http://www.w3.org/2000/svg">
<g clip-path="url(#clip0)">
<rect x="0.5" width="93" height="83" fill="white"/>
<g style="mix-blend-mode:multiply">
<path d="M106 41.5C106 74.3704 79.3527 101 46.5 101C13.6296 101 -13 74.3527 -13 41.5C-13 8.64734 13.6296 -18 46.5 -18C79.3527 -18 106 8.64734 106 41.5Z" fill="white"/>
<path d="M23.5941 52.7052H15.0662V71.1438H23.5941V52.7052Z" fill="white"/>
<path d="M23.5941 52.7052H15.0662V71.1438H23.5941V52.7052Z" stroke="#459C9D" stroke-width="2" stroke-miterlimit="10" stroke-linecap="round" stroke-linejoin="round"/>
<path d="M23.5941 52.7052H15.0662V71.1438H23.5941V52.7052Z" fill="white"/>
<path d="M23.5941 52.7052H15.0662V71.1438H23.5941V52.7052Z" stroke="#459C9D" stroke-width="2" stroke-miterlimit="10" stroke-linecap="round" stroke-linejoin="round"/>
<path d="M77.9168 52.7052H69.389V71.1438H77.9168V52.7052Z" fill="white"/>
<path d="M77.9168 52.7052H69.389V71.1438H77.9168V52.7052Z" stroke="#459C9D" stroke-width="2" stroke-miterlimit="10" stroke-linecap="round" stroke-linejoin="round"/>
<path d="M77.9168 52.7052H69.389V71.1438H77.9168V52.7052Z" fill="white"/>
<path d="M77.9168 52.7052H69.389V71.1438H77.9168V52.7052Z" stroke="#459C9D" stroke-width="2" stroke-miterlimit="10" stroke-linecap="round" stroke-linejoin="round"/>
<path d="M71.0549 16.7313H21.9443V41.2689H71.0549V16.7313Z" fill="white"/>
<path d="M71.0549 16.7313H21.9443V41.2689H71.0549V16.7313Z" stroke="#459C9D" stroke-width="2" stroke-miterlimit="10" stroke-linecap="round" stroke-linejoin="round"/>
<path d="M71.0549 16.7313H21.9443V41.2689H71.0549V16.7313Z" fill="white"/>
<path d="M71.0549 16.7313H21.9443V41.2689H71.0549V16.7313Z" stroke="#459C9D" stroke-width="2" stroke-miterlimit="10" stroke-linecap="round" stroke-linejoin="round"/>
<path d="M19.8704 40.6309H66.3747M19.8704 22.1213H66.3747H19.8704ZM20.3845 28.2912H66.357H20.3845ZM20.3845 34.461H66.357H20.3845Z" stroke="#459C9D" stroke-width="2" stroke-miterlimit="10" stroke-linecap="round" stroke-linejoin="round"/>
<path d="M27.53 11.8744H19.0021V41.0393H27.53V11.8744Z" fill="white"/>
<path d="M27.53 11.8744H19.0021V41.0393H27.53V11.8744Z" stroke="#459C9D" stroke-width="2" stroke-miterlimit="10" stroke-linecap="round" stroke-linejoin="round"/>
<path d="M27.53 11.8744H19.0021V41.0393H27.53V11.8744Z" fill="white"/>
<path d="M27.53 11.8744H19.0021V41.0393H27.53V11.8744Z" stroke="#459C9D" stroke-width="2" stroke-miterlimit="10" stroke-linecap="round" stroke-linejoin="round"/>
<path d="M74.2646 11.8744H65.7367V41.0393H74.2646V11.8744Z" fill="white"/>
<path d="M74.2646 11.8744H65.7367V41.0393H74.2646V11.8744Z" stroke="#459C9D" stroke-width="2" stroke-miterlimit="10" stroke-linecap="round" stroke-linejoin="round"/>
<path d="M74.2646 11.8744H65.7367V41.0393H74.2646V11.8744Z" fill="white"/>
<path d="M74.2646 11.8744H65.7367V41.0393H74.2646V11.8744Z" stroke="#459C9D" stroke-width="2" stroke-miterlimit="10" stroke-linecap="round" stroke-linejoin="round"/>
<path d="M14.9951 40.2762V54.1584H78.0056L77.846 40.2762H14.9951Z" fill="white"/>
<path d="M14.9951 40.2762V54.1584H78.0056L77.846 40.2762H14.9951Z" stroke="#459C9D" stroke-width="2" stroke-miterlimit="10" stroke-linecap="round" stroke-linejoin="round"/>
<path d="M78.0056 54.1584H14.9951V40.2762H77.846L78.0056 54.1584Z" fill="white"/>
<path d="M78.0056 54.1584H14.9951V40.2762H77.846L78.0056 54.1584Z" stroke="#459C9D" stroke-width="2" stroke-miterlimit="10" stroke-linecap="round" stroke-linejoin="round"/>
</g>
</g>
<defs>
<clipPath id="clip0">
<rect x="0.5" width="93" height="83" fill="white"/>
</clipPath>
</defs>
</svg>
