<svg width="94" height="83" viewBox="0 0 94 83" fill="none" xmlns="http://www.w3.org/2000/svg">
<g clip-path="url(#clip0)">
<rect x="0.5" width="93" height="83" fill="white"/>
<path d="M47.2061 101.412C80.4486 101.412 107.412 74.4665 107.412 41.2061C107.412 7.96357 80.4486 -19 47.2061 -19C13.9636 -19 -13 7.94563 -13 41.2061C-13 74.4665 13.9636 101.412 47.2061 101.412Z" fill="white"/>
<path d="M74.7439 3.31738V75.6508L71.4968 79.0952V6.76185H21.3729L24.62 3.31738H74.7439Z" fill="white"/>
<path d="M21.3729 63.8639V56.7598V51.9519V44.8298V40.0219V32.9357V28.0919V21.0057V16.1619V9.48831V9.07567V6.76147H71.4968V79.0948H21.3729V75.7939V68.6898V63.8639Z" fill="white"/>
<path d="M21.373 68.6904V75.7946C21.1218 75.7946 20.8706 75.7767 20.6195 75.7587C17.6415 75.4717 15.9192 73.6418 16.7983 71.6505C17.4262 70.1974 19.274 69.0851 21.373 68.6904Z" fill="white"/>
<path d="M21.373 56.7605V63.8647C21.1218 63.8647 20.8706 63.8467 20.6195 63.8288C17.6415 63.5418 15.9192 61.7119 16.7983 59.7206C17.4262 58.2854 19.274 57.1552 21.373 56.7605Z" fill="white"/>
<path d="M21.373 44.8306V51.9527C21.1218 51.9527 20.8706 51.9347 20.6195 51.9168C17.6415 51.6118 15.9192 49.7819 16.7983 47.7906C17.4262 46.3554 19.274 45.2432 21.373 44.8306Z" fill="white"/>
<path d="M21.373 32.9374V40.0236C21.1218 40.0236 20.8706 40.0057 20.6195 39.9877C17.6415 39.6827 15.9192 37.8708 16.7983 35.8795C17.4262 34.4443 19.274 33.3141 21.373 32.9374Z" fill="white"/>
<path d="M21.373 21.0061V28.0923C21.1218 28.0923 20.8706 28.0744 20.6195 28.0564C17.6415 27.7694 15.9192 25.9395 16.7983 23.9482C17.4262 22.513 19.274 21.3828 21.373 21.0061Z" fill="white"/>
<path d="M21.373 9.48869V16.1623C21.1218 16.1623 20.8706 16.1444 20.6195 16.1264C17.6415 15.8573 15.9192 14.0095 16.7983 12.0182C17.4262 10.5651 19.2561 9.45279 21.373 9.07605V9.48869Z" fill="white"/>
<path d="M24.8892 75.0053C23.8487 75.4538 22.6826 75.705 21.4806 75.6871C21.2295 75.6871 20.9783 75.6691 20.7271 75.6512C17.7491 75.3642 16.0448 73.5343 16.9239 71.5609C17.5518 70.1257 19.3816 68.9955 21.4806 68.6009L24.8892 75.0053ZM24.8892 63.1471C23.8487 63.5777 22.6826 63.8288 21.4806 63.8109C21.2295 63.8109 20.9783 63.793 20.7271 63.775C17.7491 63.488 16.0448 61.6581 16.9239 59.6848C17.5518 58.2496 19.3816 57.1193 21.4806 56.7246L24.8892 63.1471ZM24.8892 51.253C23.8487 51.6836 22.6826 51.9347 21.4806 51.9347C21.2295 51.9347 20.9783 51.9168 20.7271 51.8989C17.7491 51.5939 16.0448 49.764 16.9239 47.7906C17.5518 46.3555 19.3816 45.2432 21.4806 44.8306L24.8892 51.253ZM24.8892 39.3589C23.8487 39.8074 22.6826 40.0586 21.4806 40.0406C21.2295 40.0406 20.9783 40.0227 20.7271 40.0048C17.7491 39.6998 16.0448 37.8879 16.9239 35.9145C17.5518 34.4793 19.3816 33.3491 21.4806 32.9723L24.8892 39.3589ZM24.8892 27.4648C23.8487 27.9133 22.6826 28.1644 21.4806 28.1465C21.2295 28.1465 20.9783 28.1286 20.7271 28.1106C17.7491 27.8236 16.0448 25.9937 16.9239 24.0204C17.5518 22.5852 19.3816 21.4549 21.4806 21.0782L24.8892 27.4648ZM24.8892 15.5886C23.8487 16.0192 22.6826 16.2703 21.4806 16.2524C21.2295 16.2524 20.9783 16.2345 20.7271 16.2165C17.7491 15.9474 16.0448 14.0996 16.9239 12.1262C17.5518 10.6911 19.3816 9.56082 21.4806 9.18409L24.8892 15.5886ZM29.8585 40.812H63.0293H29.8585ZM29.8585 34.3358H63.0293H29.8585ZM29.8585 21.3473H63.0293H29.8585ZM21.4806 6.86989L24.7098 3.42542H74.6363V75.5436L71.4071 78.988L21.4806 6.86989ZM21.4806 9.57877V9.16618V6.85193H71.4071V78.9701H21.4806V75.6692V68.5829V63.775V56.6888V51.8989V44.7947V40.0048V32.9365V28.1106V21.0423V16.2165V9.57877Z" stroke="#459C9D" stroke-width="2" stroke-miterlimit="10" stroke-linecap="round" stroke-linejoin="round"/>
<path d="M71.4069 6.88647H21.4983V78.9867H71.4069V6.88647Z" fill="white"/>
<path d="M71.4069 6.88647H21.4983V78.9867H71.4069V6.88647Z" stroke="#459C9D" stroke-width="2" stroke-miterlimit="10" stroke-linecap="round" stroke-linejoin="round"/>
<path d="M32.2084 24.5759H60.5175" stroke="#459C9D" stroke-width="2" stroke-miterlimit="10" stroke-linecap="round" stroke-linejoin="round"/>
<path d="M32.2084 32.326H60.5175" stroke="#459C9D" stroke-width="2" stroke-miterlimit="10" stroke-linecap="round" stroke-linejoin="round"/>
<path d="M32.2084 40.0941H60.5175" stroke="#459C9D" stroke-width="2" stroke-miterlimit="10" stroke-linecap="round" stroke-linejoin="round"/>
</g>
<defs>
<clipPath id="clip0">
<rect x="0.5" width="93" height="83" fill="white"/>
</clipPath>
</defs>
</svg>
