<svg width="136" height="91" viewBox="0 0 136 91" fill="none" xmlns="http://www.w3.org/2000/svg">
<rect x="0.5" y="0.5" width="135" height="90" fill="white"/>
<path d="M66.4539 43.6058H60.197V20.6664H66.4539V43.6058ZM69.8711 17.3521H56.7798V46.8806H69.8711V17.3521Z" fill="#30454F"/>
<path d="M95.8455 50.3667H40V53.6415H95.8455V50.3667Z" fill="#30454F"/>
<path d="M43.4251 60.1908H59.5617V66.4398H43.4251V60.1908ZM40 73.4244H43.4251V69.7541H62.9789V56.916H40V73.4244Z" fill="#30454F"/>
<path d="M76.6342 27.1685L82.8832 20.6189V46.8727H86.3005V27.1685L92.5573 20.6268V46.8727H95.9745V17.3521H91.173L86.3005 22.4383V17.3521H81.499L73.2092 25.9345V46.8727H76.6342V27.1685Z" fill="#30454F"/>
<path d="M69.7419 60.1908H79.2341V66.4398H69.7419V60.1908ZM82.8332 60.1908H92.4282V66.4398H82.8332V60.1908ZM66.3247 69.683H79.2736V73.3928H82.8332V69.7541H95.8532V56.916H66.3247V69.683Z" fill="#30454F"/>
<path d="M43.4251 27.3244L49.6741 20.7748V43.7142H43.4251V27.3244ZM49.6741 47.0285H53.0913V17.5H48.2898L40 26.0825V47.0285H49.6741Z" fill="#30454F"/>
</svg>
