<svg width="514" height="570" viewBox="0 0 514 570" fill="none" xmlns="http://www.w3.org/2000/svg">
<path d="M41 113L41 368.532C41 374.67 46.082 379.64 52.3405 379.64H81.5" stroke="#459C9D" stroke-miterlimit="10"/>
<path d="M52 42V352.532C52 358.67 57.082 363.64 63.3405 363.64H81.5" stroke="#459C9D" stroke-miterlimit="10"/>
<path opacity="0.25" d="M1 425.978L255.136 279.611L501.388 424.381L249.85 569.074L1 425.978Z" fill="#459C9D" stroke="white" stroke-miterlimit="10" stroke-linecap="round" stroke-linejoin="round"/>
<path d="M473.552 465.957L263.756 342.584C261.943 341.519 261.943 338.908 263.756 337.831L307.753 311.655L302.341 308.22L257.608 334.155C255.085 335.638 251.954 335.65 249.432 334.167L204.737 308.537L199.337 312.061L243.297 337.856C245.109 338.921 245.109 341.532 243.297 342.609L43.9834 460.253L47.1777 465.666L249.445 346.285C251.967 344.802 255.098 344.79 257.62 346.273L470.37 471.395L473.552 465.957Z" fill="black" stroke="white" stroke-miterlimit="10"/>
<path d="M402.53 494.883L269.65 418.474C266.316 416.56 266.303 411.743 269.637 409.816C269.637 409.816 373.236 349.708 373.375 349.594L364.464 344.561L260.156 404.378C255.529 407.053 249.825 407.065 245.186 404.403L142.93 345.981L133.462 351.064L235.742 409.854C239.076 411.768 239.089 416.585 235.755 418.512L98.6412 497.824C96.3849 499.129 95.6117 502.019 96.9173 504.276C97.792 505.784 99.3764 506.633 101.012 506.633C101.81 506.633 102.621 506.431 103.369 506L245.236 423.937C249.863 421.262 255.567 421.25 260.206 423.911L397.827 503.059C398.562 503.49 399.373 503.693 400.172 503.693C401.807 503.693 403.392 502.843 404.266 501.322C405.559 499.053 404.786 496.176 402.53 494.883Z" fill="#459C9D" stroke="white" stroke-miterlimit="10"/>
<path d="M445.272 392.678L434.042 385.529L264.085 483.043C258.825 486.073 252.36 486.073 247.1 483.043L74.8742 384.033L62.9844 391.385L235.628 490.953C238.898 492.842 238.898 497.557 235.628 499.446L173.783 535.09L180.07 545.991L247.1 507.356C252.36 504.326 258.825 504.326 264.085 507.356L327.527 543.976L333.814 533.075L275.544 499.446C272.274 497.557 272.274 492.842 275.544 490.953L445.272 392.678Z" fill="#AC7679" stroke="white" stroke-miterlimit="10"/>
<path opacity="0.7" d="M319.364 440.757L273.034 414.214V387.05L319.364 413.58V440.757Z" fill="#459C9D" stroke="#459C9D" stroke-miterlimit="10" stroke-linecap="round" stroke-linejoin="round"/>
<path opacity="0.7" d="M319.364 440.757L365.694 414.214V387.05L319.364 413.58V440.757Z" fill="white" stroke="#459C9D" stroke-miterlimit="10" stroke-linecap="round" stroke-linejoin="round"/>
<path opacity="0.7" d="M319.288 361.496L365.694 387.05L319.364 413.581L273.034 387.05L319.288 361.496Z" fill="white" stroke="#459C9D" stroke-miterlimit="10" stroke-linecap="round" stroke-linejoin="round"/>
<path opacity="0.7" d="M253.45 479.419L207.12 452.889V425.712L253.45 452.243V479.419Z" fill="#459C9D" stroke="#459C9D" stroke-miterlimit="10" stroke-linecap="round" stroke-linejoin="round"/>
<path opacity="0.7" d="M253.45 479.419L299.78 452.889V425.712L253.45 452.243V479.419Z" fill="white" stroke="#459C9D" stroke-miterlimit="10" stroke-linecap="round" stroke-linejoin="round"/>
<path opacity="0.7" d="M253.387 400.158L299.78 425.713L253.45 452.243L207.12 425.713L253.387 400.158Z" fill="white" stroke="#459C9D" stroke-miterlimit="10" stroke-linecap="round" stroke-linejoin="round"/>
<path opacity="0.7" d="M379.713 406.571L333.383 380.028V360.013L379.713 386.544V406.571Z" fill="#459C9D" stroke="#459C9D" stroke-miterlimit="10" stroke-linecap="round" stroke-linejoin="round"/>
<path opacity="0.7" d="M379.713 406.571L426.043 380.028V360.013L379.713 386.544V406.571Z" fill="white" stroke="#459C9D" stroke-miterlimit="10" stroke-linecap="round" stroke-linejoin="round"/>
<path opacity="0.7" d="M379.637 334.459L426.043 360.013L379.713 386.543L333.383 360.013L379.637 334.459Z" fill="white" stroke="#459C9D" stroke-miterlimit="10" stroke-linecap="round" stroke-linejoin="round"/>
<path opacity="0.7" d="M313.863 368.24L267.533 341.697V325.421L313.863 351.952V368.24Z" fill="#459C9D" stroke="#459C9D" stroke-miterlimit="10" stroke-linecap="round" stroke-linejoin="round"/>
<path opacity="0.7" d="M313.863 368.24L360.18 341.697V325.421L313.863 351.952V368.24Z" fill="white" stroke="#459C9D" stroke-miterlimit="10" stroke-linecap="round" stroke-linejoin="round"/>
<path opacity="0.7" d="M313.787 299.866L360.18 325.421L313.863 351.951L267.533 325.421L313.787 299.866Z" fill="white" stroke="#459C9D" stroke-miterlimit="10" stroke-linecap="round" stroke-linejoin="round"/>
<path opacity="0.7" d="M253.932 333.799L207.602 307.256V295.518L253.932 322.049V333.799Z" fill="#459C9D" stroke="#459C9D" stroke-miterlimit="10" stroke-linecap="round" stroke-linejoin="round"/>
<path opacity="0.7" d="M253.932 333.799L300.249 307.256V295.518L253.932 322.049V333.799Z" fill="white" stroke="#459C9D" stroke-miterlimit="10" stroke-linecap="round" stroke-linejoin="round"/>
<path opacity="0.7" d="M253.856 269.965L300.249 295.519L253.932 322.049L207.602 295.519L253.856 269.965Z" fill="white" stroke="#459C9D" stroke-miterlimit="10" stroke-linecap="round" stroke-linejoin="round"/>
<path opacity="0.7" d="M194.343 315.635L235.083 338.059C237.567 339.428 237.593 342.977 235.134 344.397L202.798 362.916C197.613 365.895 191.238 365.895 186.04 362.916L148.089 341.177L194.343 315.635Z" fill="#459C9D" stroke="white" stroke-miterlimit="10" stroke-linecap="round" stroke-linejoin="round"/>
<path opacity="0.7" d="M335.855 472.268L381.653 497.595L334.258 524.746L287.548 498C284.62 496.327 284.645 492.081 287.611 490.445L320.53 472.268C325.296 469.632 331.089 469.632 335.855 472.268Z" fill="#459C9D" stroke="white" stroke-miterlimit="10" stroke-linecap="round" stroke-linejoin="round"/>
<path opacity="0.7" d="M128.062 405.709L81.7318 379.178V362.89L128.062 389.433V405.709Z" fill="#459C9D" stroke="#459C9D" stroke-miterlimit="10" stroke-linecap="round" stroke-linejoin="round"/>
<path opacity="0.7" d="M128.062 405.709L174.379 379.178V362.89L128.062 389.433V405.709Z" fill="white" stroke="#459C9D" stroke-miterlimit="10" stroke-linecap="round" stroke-linejoin="round"/>
<path opacity="0.7" d="M127.986 337.349L174.379 362.89L128.062 389.433L81.7318 362.89L127.986 337.349Z" fill="white" stroke="#459C9D" stroke-miterlimit="10" stroke-linecap="round" stroke-linejoin="round"/>
<path opacity="0.7" d="M47.3172 452.508L1 425.977V412.579L47.3172 439.122V452.508Z" fill="#459C9D" stroke="#459C9D" stroke-miterlimit="10" stroke-linecap="round" stroke-linejoin="round"/>
<path opacity="0.7" d="M47.3172 452.508L93.647 425.977V412.579L47.3172 439.122V452.508Z" fill="white" stroke="#459C9D" stroke-miterlimit="10" stroke-linecap="round" stroke-linejoin="round"/>
<path opacity="0.7" d="M47.2538 387.038L93.647 412.579L47.3172 439.122L1 412.579L47.2538 387.038Z" fill="white" stroke="#459C9D" stroke-miterlimit="10" stroke-linecap="round" stroke-linejoin="round"/>
<path opacity="0.7" d="M107.197 486.986L60.8675 460.456V444.167L107.197 470.71V486.986Z" fill="#459C9D" stroke="#459C9D" stroke-miterlimit="10" stroke-linecap="round" stroke-linejoin="round"/>
<path opacity="0.7" d="M107.197 486.986L153.527 460.456V444.167L107.197 470.71V486.986Z" fill="white" stroke="#459C9D" stroke-miterlimit="10" stroke-linecap="round" stroke-linejoin="round"/>
<path opacity="0.7" d="M107.134 418.626L153.527 444.167L107.197 470.71L60.8675 444.167L107.134 418.626Z" fill="white" stroke="#459C9D" stroke-miterlimit="10" stroke-linecap="round" stroke-linejoin="round"/>
<path opacity="0.7" d="M173.035 525.432L126.705 498.889V475.388L173.035 501.931V525.432Z" fill="#459C9D" stroke="#459C9D" stroke-miterlimit="10" stroke-linecap="round" stroke-linejoin="round"/>
<path opacity="0.7" d="M173.035 525.432L219.365 498.889V475.388L173.035 501.931V525.432Z" fill="white" stroke="#459C9D" stroke-miterlimit="10" stroke-linecap="round" stroke-linejoin="round"/>
<path opacity="0.7" d="M172.972 449.846L219.365 475.387L173.035 501.93L126.705 475.387L172.972 449.846Z" fill="white" stroke="#459C9D" stroke-miterlimit="10" stroke-linecap="round" stroke-linejoin="round"/>
<path opacity="0.7" d="M249.85 569.074L203.52 542.531V518.282L249.85 544.812V569.074Z" fill="#459C9D" stroke="#459C9D" stroke-miterlimit="10" stroke-linecap="round" stroke-linejoin="round"/>
<path opacity="0.7" d="M249.85 569.074L296.18 542.531V518.282L249.85 544.812V569.074Z" fill="white" stroke="#459C9D" stroke-miterlimit="10" stroke-linecap="round" stroke-linejoin="round"/>
<path opacity="0.7" d="M249.787 492.728L296.18 518.282L249.85 544.812L203.52 518.282L249.787 492.728Z" fill="white" stroke="#459C9D" stroke-miterlimit="10" stroke-linecap="round" stroke-linejoin="round"/>
<path opacity="0.7" d="M395.317 485.313L348.987 458.77V442.494L395.317 469.025V485.313Z" fill="#459C9D" stroke="#459C9D" stroke-miterlimit="10" stroke-linecap="round" stroke-linejoin="round"/>
<path opacity="0.7" d="M395.317 485.313L441.647 458.77V442.494L395.317 469.025V485.313Z" fill="white" stroke="#459C9D" stroke-miterlimit="10" stroke-linecap="round" stroke-linejoin="round"/>
<path opacity="0.7" d="M395.254 416.939L441.647 442.494L395.317 469.024L348.987 442.494L395.254 416.939Z" fill="white" stroke="#459C9D" stroke-miterlimit="10" stroke-linecap="round" stroke-linejoin="round"/>
<path opacity="0.7" d="M455.058 450.923L408.728 424.38V408.105L455.058 434.635V450.923Z" fill="#459C9D" stroke="#459C9D" stroke-miterlimit="10" stroke-linecap="round" stroke-linejoin="round"/>
<path opacity="0.7" d="M455.058 450.923L501.388 424.38V408.105L455.058 434.635V450.923Z" fill="white" stroke="#459C9D" stroke-miterlimit="10" stroke-linecap="round" stroke-linejoin="round"/>
<path opacity="0.7" d="M454.982 382.551L501.388 408.105L455.058 434.635L408.728 408.105L454.982 382.551Z" fill="white" stroke="#459C9D" stroke-miterlimit="10" stroke-linecap="round" stroke-linejoin="round"/>
<path opacity="0.7" d="M253.615 402.907L207.285 376.377V360.101L253.615 386.632V402.907Z" fill="#459C9D" stroke="#459C9D" stroke-miterlimit="10" stroke-linecap="round" stroke-linejoin="round"/>
<path opacity="0.7" d="M253.615 402.907L299.945 376.377V360.101L253.615 386.632V402.907Z" fill="white" stroke="#459C9D" stroke-miterlimit="10" stroke-linecap="round" stroke-linejoin="round"/>
<path opacity="0.7" d="M253.552 334.547L299.945 360.102L253.615 386.632L207.285 360.102L253.552 334.547Z" fill="white" stroke="#459C9D" stroke-miterlimit="10" stroke-linecap="round" stroke-linejoin="round"/>
<path opacity="0.7" d="M187.473 441.416L141.143 414.885V398.597L187.473 425.14V441.416Z" fill="#459C9D" stroke="#459C9D" stroke-miterlimit="10" stroke-linecap="round" stroke-linejoin="round"/>
<path opacity="0.7" d="M187.473 441.416L233.803 414.885V398.597L187.473 425.14V441.416Z" fill="white" stroke="#459C9D" stroke-miterlimit="10" stroke-linecap="round" stroke-linejoin="round"/>
<path opacity="0.7" d="M187.397 373.056L233.803 398.597L187.473 425.14L141.143 398.597L187.397 373.056Z" fill="white" stroke="#459C9D" stroke-miterlimit="10" stroke-linecap="round" stroke-linejoin="round"/>
<path d="M438.194 390.367L438.194 252.464C438.194 245.301 444.004 239.5 451.159 239.5L514 239.5" stroke="#AC7679" stroke-width="2" stroke-miterlimit="10"/>
<g clip-path="url(#clip0)">
<path d="M88.9105 17.9794H91.723C91.3651 15.3906 89.0831 13.5689 86.1236 13.5689C82.6655 13.5689 80 16.0618 80 20.3061C80 24.4482 82.4929 27.0178 86.1811 27.0178C89.4858 27.0178 91.8445 24.9276 91.8445 21.4822V19.8331H86.3665V21.9169H89.179C89.1406 23.5405 88.0348 24.5696 86.1939 24.5696C84.1165 24.5696 82.8061 23.0163 82.8061 20.2805C82.8061 17.5575 84.1676 16.017 86.1683 16.017C87.5938 16.017 88.5589 16.7521 88.9105 17.9794Z" fill="black"/>
<path d="M96.6912 13.7479H93.9235V26.8388H96.6912V13.7479Z" fill="black"/>
<path d="M106.07 17.5128H108.723C108.684 15.1797 106.767 13.5689 103.852 13.5689C100.982 13.5689 98.8789 15.1541 98.8917 17.532C98.8853 19.4624 100.247 20.5682 102.458 21.0987L103.884 21.4567C105.309 21.8018 106.102 22.2109 106.108 23.093C106.102 24.0518 105.194 24.7038 103.788 24.7038C102.35 24.7038 101.314 24.0391 101.225 22.7287H98.5465C98.6168 25.5604 100.643 27.0241 103.82 27.0241C107.016 27.0241 108.895 25.4964 108.902 23.0994C108.895 20.9197 107.252 19.7628 104.977 19.2514L103.801 18.9702C102.663 18.7081 101.711 18.2862 101.73 17.3466C101.73 16.5028 102.478 15.8828 103.833 15.8828C105.156 15.8828 105.968 16.4837 106.07 17.5128Z" fill="black"/>
<path d="M117.678 27.0241C119.129 27.0241 120.069 26.3913 120.548 25.4773H120.625V26.8388H123.207V20.2166C123.207 17.8771 121.226 16.8928 119.039 16.8928C116.687 16.8928 115.14 18.0178 114.763 19.8075L117.282 20.0121C117.467 19.3601 118.049 18.8807 119.027 18.8807C119.953 18.8807 120.484 19.3473 120.484 20.1527V20.1911C120.484 20.8239 119.813 20.907 118.106 21.0732C116.163 21.2521 114.418 21.9041 114.418 24.0966C114.418 26.0398 115.805 27.0241 117.678 27.0241ZM118.458 25.1449C117.62 25.1449 117.02 24.755 117.02 24.0071C117.02 23.2401 117.652 22.8629 118.611 22.7287C119.206 22.6456 120.177 22.505 120.503 22.2876V23.3295C120.503 24.3587 119.653 25.1449 118.458 25.1449Z" fill="black"/>
<path d="M128.043 21.1626C128.049 19.897 128.803 19.1555 129.903 19.1555C130.996 19.1555 131.654 19.8714 131.648 21.0732V26.8388H134.371V20.5874C134.371 18.299 133.028 16.8928 130.983 16.8928C129.526 16.8928 128.471 17.6087 128.03 18.7528H127.915V17.0206H125.32V26.8388H128.043V21.1626Z" fill="black"/>
<path d="M139.317 27.0241C140.768 27.0241 141.707 26.3913 142.187 25.4773H142.263V26.8388H144.846V20.2166C144.846 17.8771 142.864 16.8928 140.678 16.8928C138.326 16.8928 136.779 18.0178 136.402 19.8075L138.92 20.0121C139.106 19.3601 139.687 18.8807 140.665 18.8807C141.592 18.8807 142.123 19.3473 142.123 20.1527V20.1911C142.123 20.8239 141.452 20.907 139.745 21.0732C137.802 21.2521 136.057 21.9041 136.057 24.0966C136.057 26.0398 137.444 27.0241 139.317 27.0241ZM140.096 25.1449C139.259 25.1449 138.658 24.755 138.658 24.0071C138.658 23.2401 139.291 22.8629 140.25 22.7287C140.844 22.6456 141.816 22.505 142.142 22.2876V23.3295C142.142 24.3587 141.292 25.1449 140.096 25.1449Z" fill="black"/>
<path d="M149.681 13.7479H146.958V26.8388H149.681V13.7479Z" fill="black"/>
<path d="M153.544 30.5014C155.57 30.5014 156.65 29.4723 157.2 27.8999L161.016 17.0334L158.133 17.0206L156.081 24.2308H155.979L153.946 17.0206H151.083L154.605 27.12L154.445 27.5355C154.061 28.424 153.403 28.4879 152.444 28.1875L151.831 30.2266C152.221 30.3864 152.853 30.5014 153.544 30.5014Z" fill="black"/>
<path d="M170.578 19.8203C170.336 18.0114 168.878 16.8928 166.398 16.8928C163.886 16.8928 162.23 18.0561 162.237 19.9482C162.23 21.4183 163.157 22.3707 165.075 22.7543L166.775 23.093C167.632 23.2656 168.022 23.5788 168.034 24.071C168.022 24.6527 167.389 25.0682 166.436 25.0682C165.465 25.0682 164.819 24.6527 164.653 23.8537L161.975 23.9943C162.23 25.8736 163.828 27.0305 166.43 27.0305C168.974 27.0305 170.796 25.733 170.802 23.7962C170.796 22.3771 169.869 21.527 167.964 21.1371L166.187 20.7791C165.273 20.581 164.934 20.2678 164.941 19.7947C164.934 19.2067 165.599 18.8232 166.443 18.8232C167.389 18.8232 167.951 19.3409 168.086 19.9737L170.578 19.8203Z" fill="black"/>
<path d="M172.517 26.8388H175.24V17.0206H172.517V26.8388ZM173.885 15.755C174.697 15.755 175.361 15.1349 175.361 14.3743C175.361 13.62 174.697 13 173.885 13C173.079 13 172.415 13.62 172.415 14.3743C172.415 15.1349 173.079 15.755 173.885 15.755Z" fill="black"/>
<path d="M185.59 19.8203C185.347 18.0114 183.89 16.8928 181.41 16.8928C178.898 16.8928 177.242 18.0561 177.249 19.9482C177.242 21.4183 178.169 22.3707 180.087 22.7543L181.787 23.093C182.643 23.2656 183.033 23.5788 183.046 24.071C183.033 24.6527 182.401 25.0682 181.448 25.0682C180.477 25.0682 179.831 24.6527 179.665 23.8537L176.987 23.9943C177.242 25.8736 178.84 27.0305 181.442 27.0305C183.986 27.0305 185.808 25.733 185.814 23.7962C185.808 22.3771 184.881 21.527 182.976 21.1371L181.199 20.7791C180.285 20.581 179.946 20.2678 179.952 19.7947C179.946 19.2067 180.611 18.8232 181.455 18.8232C182.401 18.8232 182.963 19.3409 183.097 19.9737L185.59 19.8203Z" fill="black"/>
<path d="M82.9979 79.3402L83.9695 76.3552H88.6932L89.6648 79.3402H92.6307L88.1179 66.2493H84.5511L80.032 79.3402H82.9979ZM84.6726 74.1946L86.2834 69.2408H86.3857L87.9964 74.1946H84.6726Z" fill="black"/>
<path d="M96.8782 73.6641C96.8846 72.3985 97.6388 71.657 98.7383 71.657C99.8313 71.657 100.49 72.3729 100.483 73.5746V79.3402H103.206V73.0888C103.206 70.8005 101.864 69.3942 99.8185 69.3942C98.3612 69.3942 97.3065 70.1101 96.8654 71.2543H96.7504V69.5221H94.1552V79.3402H96.8782V73.6641Z" fill="black"/>
<path d="M108.152 79.5256C109.603 79.5256 110.543 78.8928 111.022 77.9787H111.099V79.3402H113.681V72.7181C113.681 70.3786 111.7 69.3942 109.514 69.3942C107.161 69.3942 105.615 70.5192 105.237 72.309L107.756 72.5135C107.941 71.8616 108.523 71.3821 109.501 71.3821C110.428 71.3821 110.958 71.8488 110.958 72.6542V72.6925C110.958 73.3253 110.287 73.4084 108.58 73.5746C106.637 73.7536 104.892 74.4056 104.892 76.5981C104.892 78.5412 106.279 79.5256 108.152 79.5256ZM108.932 77.6464C108.095 77.6464 107.494 77.2564 107.494 76.5086C107.494 75.7415 108.127 75.3644 109.085 75.2302C109.68 75.1471 110.651 75.0064 110.977 74.7891V75.831C110.977 76.8601 110.127 77.6464 108.932 77.6464Z" fill="black"/>
<path d="M118.517 66.2493H115.794V79.3402H118.517V66.2493Z" fill="black"/>
<path d="M122.379 83.0029C124.406 83.0029 125.486 81.9738 126.036 80.4013L129.852 69.5348L126.969 69.5221L124.917 76.7323H124.815L122.782 69.5221H119.918L123.44 79.6215L123.281 80.037C122.897 80.9255 122.239 80.9894 121.28 80.689L120.666 82.728C121.056 82.8878 121.689 83.0029 122.379 83.0029Z" fill="black"/>
<path d="M139.414 72.3218C139.171 70.5128 137.714 69.3942 135.234 69.3942C132.722 69.3942 131.066 70.5576 131.072 72.4496C131.066 73.9198 131.993 74.8722 133.911 75.2557L135.611 75.5945C136.467 75.7671 136.857 76.0803 136.87 76.5725C136.857 77.1542 136.224 77.5696 135.272 77.5696C134.3 77.5696 133.655 77.1542 133.489 76.3552L130.81 76.4958C131.066 78.375 132.664 79.532 135.266 79.532C137.81 79.532 139.631 78.2344 139.638 76.2976C139.631 74.8786 138.705 74.0285 136.8 73.6385L135.023 73.2806C134.109 73.0824 133.77 72.7692 133.776 72.2962C133.77 71.7081 134.435 71.3246 135.278 71.3246C136.224 71.3246 136.787 71.8424 136.921 72.4752L139.414 72.3218Z" fill="black"/>
<path d="M141.352 79.3402H144.075V69.5221H141.352V79.3402ZM142.72 68.2564C143.532 68.2564 144.197 67.6364 144.197 66.8758C144.197 66.1215 143.532 65.5015 142.72 65.5015C141.915 65.5015 141.25 66.1215 141.25 66.8758C141.25 67.6364 141.915 68.2564 142.72 68.2564Z" fill="black"/>
<path d="M154.426 72.3218C154.183 70.5128 152.725 69.3942 150.245 69.3942C147.733 69.3942 146.078 70.5576 146.084 72.4496C146.078 73.9198 147.005 74.8722 148.922 75.2557L150.623 75.5945C151.479 75.7671 151.869 76.0803 151.882 76.5725C151.869 77.1542 151.236 77.5696 150.284 77.5696C149.312 77.5696 148.667 77.1542 148.5 76.3552L145.822 76.4958C146.078 78.375 147.676 79.532 150.277 79.532C152.821 79.532 154.643 78.2344 154.649 76.2976C154.643 74.8786 153.716 74.0285 151.811 73.6385L150.034 73.2806C149.12 73.0824 148.782 72.7692 148.788 72.2962C148.782 71.7081 149.446 71.3246 150.29 71.3246C151.236 71.3246 151.799 71.8424 151.933 72.4752L154.426 72.3218Z" fill="black"/>
<path d="M164.966 79.532C167.945 79.532 169.799 77.4929 169.799 74.4695C169.799 71.4269 167.945 69.3942 164.966 69.3942C161.988 69.3942 160.134 71.4269 160.134 74.4695C160.134 77.4929 161.988 79.532 164.966 79.532ZM164.979 77.4226C163.605 77.4226 162.902 76.1634 162.902 74.4503C162.902 72.7373 163.605 71.4716 164.979 71.4716C166.328 71.4716 167.031 72.7373 167.031 74.4503C167.031 76.1634 166.328 77.4226 164.979 77.4226Z" fill="black"/>
<path d="M176.849 69.5221H174.899V68.8637C174.899 68.1989 175.168 67.809 175.967 67.809C176.293 67.809 176.625 67.8793 176.843 67.9496L177.322 65.9042C176.983 65.8019 176.235 65.6357 175.398 65.6357C173.551 65.6357 172.176 66.6776 172.176 68.8125V69.5221H170.789V71.5675H172.176V79.3402H174.899V71.5675H176.849V69.5221Z" fill="black"/>
<path d="M85.9126 91.5221H84.0653V89.1698H81.3423V91.5221H80V93.5675H81.3423V98.6812C81.3295 100.605 82.6399 101.558 84.6151 101.474C85.3182 101.449 85.8168 101.308 86.0916 101.219L85.6634 99.1925C85.5291 99.2181 85.2415 99.282 84.9858 99.282C84.4425 99.282 84.0653 99.0775 84.0653 98.3232V93.5675H85.9126V91.5221Z" fill="black"/>
<path d="M90.6204 95.6641C90.6268 94.3985 91.4002 93.657 92.5124 93.657C93.6183 93.657 94.2702 94.3665 94.2638 95.5746V101.34H96.9869V95.0888C96.9933 92.7877 95.6381 91.3942 93.5927 91.3942C92.1033 91.3942 91.1062 92.0973 90.6587 93.2543H90.5437V88.2493H87.8974V101.34H90.6204V95.6641Z" fill="black"/>
<path d="M103.604 101.532C106.033 101.532 107.67 100.349 108.053 98.5277L105.535 98.3615C105.26 99.1094 104.557 99.4993 103.649 99.4993C102.287 99.4993 101.425 98.5981 101.425 97.1343V97.1279H108.111V96.38C108.111 93.0434 106.091 91.3942 103.496 91.3942C100.606 91.3942 98.7335 93.4461 98.7335 96.4759C98.7335 99.5888 100.581 101.532 103.604 101.532ZM101.425 95.4404C101.482 94.3218 102.332 93.4269 103.54 93.4269C104.723 93.4269 105.541 94.2706 105.547 95.4404H101.425Z" fill="black"/>
<path d="M120.35 97.1598C120.356 98.4766 119.455 99.167 118.477 99.167C117.448 99.167 116.783 98.4446 116.777 97.2877V91.5221H114.054V97.7735C114.06 100.068 115.402 101.468 117.377 101.468C118.854 101.468 119.915 100.707 120.356 99.5569H120.458V101.34H123.073V91.5221H120.35V97.1598Z" fill="black"/>
<path d="M125.251 101.34H127.974V95.7856C127.974 94.5775 128.856 93.7465 130.058 93.7465C130.435 93.7465 130.953 93.8104 131.208 93.8935V91.4773C130.965 91.4198 130.627 91.3814 130.352 91.3814C129.252 91.3814 128.351 92.0206 127.993 93.2351H127.891V91.5221H125.251V101.34Z" fill="black"/>
<path d="M132.667 101.34H135.352V99.7678H135.473C135.851 100.586 136.675 101.5 138.26 101.5C140.498 101.5 142.243 99.7294 142.243 96.4439C142.243 93.0689 140.421 91.3942 138.267 91.3942C136.624 91.3942 135.838 92.3722 135.473 93.1712H135.39V88.2493H132.667V101.34ZM135.333 96.4312C135.333 94.6797 136.074 93.5611 137.397 93.5611C138.746 93.5611 139.462 94.7309 139.462 96.4312C139.462 98.1442 138.733 99.3331 137.397 99.3331C136.087 99.3331 135.333 98.1826 135.333 96.4312Z" fill="black"/>
<path d="M146.859 101.526C148.31 101.526 149.25 100.893 149.729 99.9787H149.806V101.34H152.388V94.7181C152.388 92.3786 150.407 91.3942 148.221 91.3942C145.868 91.3942 144.322 92.5192 143.944 94.309L146.463 94.5135C146.648 93.8615 147.23 93.3821 148.208 93.3821C149.135 93.3821 149.665 93.8488 149.665 94.6542V94.6925C149.665 95.3253 148.994 95.4084 147.287 95.5746C145.344 95.7536 143.599 96.4056 143.599 98.5981C143.599 100.541 144.986 101.526 146.859 101.526ZM147.639 99.6464C146.802 99.6464 146.201 99.2564 146.201 98.5086C146.201 97.7415 146.834 97.3644 147.792 97.2302C148.387 97.1471 149.358 97.0064 149.684 96.7891V97.831C149.684 98.8601 148.834 99.6464 147.639 99.6464Z" fill="black"/>
<path d="M157.224 95.6641C157.23 94.3985 157.985 93.657 159.084 93.657C160.177 93.657 160.835 94.3729 160.829 95.5746V101.34H163.552V95.0888C163.552 92.8005 162.21 91.3942 160.164 91.3942C158.707 91.3942 157.652 92.1101 157.211 93.2543H157.096V91.5221H154.501V101.34H157.224V95.6641Z" fill="black"/>
<path d="M174.339 101.532C176.768 101.532 178.404 100.349 178.787 98.5277L176.269 98.3615C175.994 99.1094 175.291 99.4993 174.383 99.4993C173.022 99.4993 172.159 98.5981 172.159 97.1343V97.1279H178.845V96.38C178.845 93.0434 176.825 91.3942 174.23 91.3942C171.341 91.3942 169.468 93.4461 169.468 96.4759C169.468 99.5888 171.315 101.532 174.339 101.532ZM172.159 95.4404C172.216 94.3218 173.067 93.4269 174.275 93.4269C175.457 93.4269 176.275 94.2706 176.282 95.4404H172.159Z" fill="black"/>
<path d="M183.345 95.6641C183.351 94.3985 184.106 93.657 185.205 93.657C186.298 93.657 186.956 94.3729 186.95 95.5746V101.34H189.673V95.0888C189.673 92.8005 188.331 91.3942 186.285 91.3942C184.828 91.3942 183.773 92.1101 183.332 93.2543H183.217V91.5221H180.622V101.34H183.345V95.6641Z" fill="black"/>
<path d="M200.621 91.5221H197.738L195.706 98.5469H195.603L193.564 91.5221H190.688L194.12 101.34H197.189L200.621 91.5221Z" fill="black"/>
<path d="M202.015 101.34H204.738V91.5221H202.015V101.34ZM203.382 90.2564C204.194 90.2564 204.859 89.6364 204.859 88.8758C204.859 88.1215 204.194 87.5015 203.382 87.5015C202.577 87.5015 201.912 88.1215 201.912 88.8758C201.912 89.6364 202.577 90.2564 203.382 90.2564Z" fill="black"/>
<path d="M206.919 101.34H209.642V95.7856C209.642 94.5775 210.524 93.7465 211.726 93.7465C212.103 93.7465 212.621 93.8104 212.876 93.8935V91.4773C212.633 91.4198 212.295 91.3814 212.02 91.3814C210.92 91.3814 210.019 92.0206 209.661 93.2351H209.559V91.5221H206.919V101.34Z" fill="black"/>
<path d="M218.263 101.532C221.242 101.532 223.096 99.4929 223.096 96.4695C223.096 93.4269 221.242 91.3942 218.263 91.3942C215.284 91.3942 213.431 93.4269 213.431 96.4695C213.431 99.4929 215.284 101.532 218.263 101.532ZM218.276 99.4226C216.902 99.4226 216.199 98.1634 216.199 96.4503C216.199 94.7373 216.902 93.4716 218.276 93.4716C219.625 93.4716 220.328 94.7373 220.328 96.4503C220.328 98.1634 219.625 99.4226 218.276 99.4226Z" fill="black"/>
<path d="M227.589 95.6641C227.596 94.3985 228.35 93.657 229.449 93.657C230.542 93.657 231.201 94.3729 231.194 95.5746V101.34H233.917V95.0888C233.917 92.8005 232.575 91.3942 230.529 91.3942C229.072 91.3942 228.017 92.1101 227.576 93.2543H227.461V91.5221H224.866V101.34H227.589V95.6641Z" fill="black"/>
<path d="M236.063 101.34H238.786V95.4468C238.786 94.3601 239.477 93.6378 240.384 93.6378C241.279 93.6378 241.88 94.2515 241.88 95.2167V101.34H244.52V95.3445C244.52 94.3282 245.102 93.6378 246.093 93.6378C246.962 93.6378 247.614 94.1812 247.614 95.2742V101.34H250.33V94.7373C250.33 92.6087 249.065 91.3942 247.237 91.3942C245.798 91.3942 244.68 92.1293 244.277 93.2543H244.175C243.862 92.1165 242.858 91.3942 241.509 91.3942C240.186 91.3942 239.183 92.0973 238.774 93.2543H238.659V91.5221H236.063V101.34Z" fill="black"/>
<path d="M256.956 101.532C259.385 101.532 261.021 100.349 261.405 98.5277L258.886 98.3615C258.611 99.1094 257.908 99.4993 257.001 99.4993C255.639 99.4993 254.776 98.5981 254.776 97.1343V97.1279H261.462V96.38C261.462 93.0434 259.442 91.3942 256.847 91.3942C253.958 91.3942 252.085 93.4461 252.085 96.4759C252.085 99.5888 253.932 101.532 256.956 101.532ZM254.776 95.4404C254.834 94.3218 255.684 93.4269 256.892 93.4269C258.074 93.4269 258.893 94.2706 258.899 95.4404H254.776Z" fill="black"/>
<path d="M265.962 95.6641C265.969 94.3985 266.723 93.657 267.822 93.657C268.915 93.657 269.574 94.3729 269.567 95.5746V101.34H272.29V95.0888C272.29 92.8005 270.948 91.3942 268.903 91.3942C267.445 91.3942 266.39 92.1101 265.949 93.2543H265.834V91.5221H263.239V101.34H265.962V95.6641Z" fill="black"/>
<path d="M279.659 91.5221H277.811V89.1698H275.088V91.5221H273.746V93.5675H275.088V98.6812C275.076 100.605 276.386 101.558 278.361 101.474C279.064 101.449 279.563 101.308 279.838 101.219L279.409 99.1925C279.275 99.2181 278.988 99.282 278.732 99.282C278.189 99.282 277.811 99.0775 277.811 98.3232V93.5675H279.659V91.5221Z" fill="black"/>
<path d="M86.9865 119.16C86.9929 120.477 86.0916 121.167 85.1136 121.167C84.0845 121.167 83.4197 120.445 83.4134 119.288V113.522H80.6903V119.773C80.6967 122.068 82.0391 123.468 84.0142 123.468C85.4908 123.468 86.5518 122.707 86.9929 121.557H87.0952V123.34H89.7095V113.522H86.9865V119.16Z" fill="black"/>
<path d="M100.057 116.322C99.8137 114.513 98.3564 113.394 95.8762 113.394C93.3642 113.394 91.7086 114.558 91.715 116.45C91.7086 117.92 92.6355 118.872 94.5531 119.256L96.2534 119.595C97.1099 119.767 97.4998 120.08 97.5126 120.572C97.4998 121.154 96.867 121.57 95.9146 121.57C94.943 121.57 94.2974 121.154 94.1312 120.355L91.4529 120.496C91.7086 122.375 93.3066 123.532 95.9082 123.532C98.4522 123.532 100.274 122.234 100.28 120.298C100.274 118.879 99.3471 118.028 97.4423 117.639L95.6653 117.281C94.7512 117.082 94.4125 116.769 94.4189 116.296C94.4125 115.708 95.0772 115.325 95.921 115.325C96.867 115.325 97.4295 115.842 97.5637 116.475L100.057 116.322Z" fill="black"/>
<path d="M101.995 123.34H104.718V113.522H101.995V123.34ZM103.363 112.256C104.175 112.256 104.839 111.636 104.839 110.876C104.839 110.121 104.175 109.501 103.363 109.501C102.558 109.501 101.893 110.121 101.893 110.876C101.893 111.636 102.558 112.256 103.363 112.256Z" fill="black"/>
<path d="M109.622 117.664C109.629 116.398 110.383 115.657 111.482 115.657C112.575 115.657 113.234 116.373 113.227 117.575V123.34H115.95V117.089C115.95 114.8 114.608 113.394 112.563 113.394C111.105 113.394 110.051 114.11 109.61 115.254H109.494V113.522H106.899V123.34H109.622V117.664Z" fill="black"/>
<path d="M122.52 127.163C125.326 127.163 127.32 125.884 127.32 123.436V113.522H124.616V115.171H124.514C124.15 114.372 123.351 113.394 121.708 113.394C119.554 113.394 117.732 115.069 117.732 118.412C117.732 121.678 119.503 123.2 121.714 123.2C123.281 123.2 124.156 122.413 124.514 121.602H124.629V123.398C124.629 124.683 123.766 125.207 122.584 125.207C121.382 125.207 120.775 124.683 120.551 124.152L118.033 124.491C118.359 125.974 119.874 127.163 122.52 127.163ZM122.577 121.154C121.241 121.154 120.513 120.093 120.513 118.399C120.513 116.731 121.229 115.561 122.577 115.561C123.901 115.561 124.642 116.68 124.642 118.399C124.642 120.131 123.888 121.154 122.577 121.154Z" fill="black"/>
<path d="M138.089 123.532C140.704 123.532 142.346 121.998 142.474 119.742H139.905C139.745 120.79 139.055 121.378 138.121 121.378C136.849 121.378 136.025 120.31 136.025 118.431C136.025 116.577 136.856 115.516 138.121 115.516C139.118 115.516 139.758 116.175 139.905 117.153H142.474C142.359 114.884 140.64 113.394 138.077 113.394C135.098 113.394 133.257 115.459 133.257 118.47C133.257 121.455 135.066 123.532 138.089 123.532Z" fill="black"/>
<path d="M148.654 123.532C151.632 123.532 153.486 121.493 153.486 118.47C153.486 115.427 151.632 113.394 148.654 113.394C145.675 113.394 143.821 115.427 143.821 118.47C143.821 121.493 145.675 123.532 148.654 123.532ZM148.667 121.423C147.292 121.423 146.589 120.163 146.589 118.45C146.589 116.737 147.292 115.472 148.667 115.472C150.015 115.472 150.718 116.737 150.718 118.45C150.718 120.163 150.015 121.423 148.667 121.423Z" fill="black"/>
<path d="M155.257 123.34H157.98V117.447C157.98 116.36 158.67 115.638 159.578 115.638C160.473 115.638 161.074 116.251 161.074 117.217V123.34H163.713V117.345C163.713 116.328 164.295 115.638 165.286 115.638C166.155 115.638 166.807 116.181 166.807 117.274V123.34H169.524V116.737C169.524 114.609 168.258 113.394 166.43 113.394C164.992 113.394 163.873 114.129 163.471 115.254H163.368C163.055 114.117 162.051 113.394 160.703 113.394C159.38 113.394 158.376 114.097 157.967 115.254H157.852V113.522H155.257V123.34Z" fill="black"/>
<path d="M171.675 127.022H174.398V121.768H174.481C174.858 122.586 175.683 123.5 177.268 123.5C179.505 123.5 181.25 121.729 181.25 118.444C181.25 115.069 179.428 113.394 177.274 113.394C175.631 113.394 174.845 114.372 174.481 115.171H174.359V113.522H171.675V127.022ZM174.34 118.431C174.34 116.68 175.082 115.561 176.405 115.561C177.754 115.561 178.469 116.731 178.469 118.431C178.469 120.144 177.741 121.333 176.405 121.333C175.094 121.333 174.34 120.183 174.34 118.431Z" fill="black"/>
<path d="M189.362 119.16C189.368 120.477 188.467 121.167 187.489 121.167C186.46 121.167 185.795 120.445 185.788 119.288V113.522H183.065V119.773C183.072 122.068 184.414 123.468 186.389 123.468C187.866 123.468 188.927 122.707 189.368 121.557H189.47V123.34H192.085V113.522H189.362V119.16Z" fill="black"/>
<path d="M199.485 113.522H197.638V111.17H194.915V113.522H193.572V115.568H194.915V120.681C194.902 122.605 196.212 123.558 198.187 123.474C198.89 123.449 199.389 123.308 199.664 123.219L199.236 121.193C199.101 121.218 198.814 121.282 198.558 121.282C198.015 121.282 197.638 121.077 197.638 120.323V115.568H199.485V113.522Z" fill="black"/>
<path d="M205.628 123.532C208.057 123.532 209.693 122.349 210.077 120.528L207.558 120.362C207.283 121.109 206.58 121.499 205.672 121.499C204.311 121.499 203.448 120.598 203.448 119.134V119.128H210.134V118.38C210.134 115.043 208.114 113.394 205.519 113.394C202.63 113.394 200.757 115.446 200.757 118.476C200.757 121.589 202.604 123.532 205.628 123.532ZM203.448 117.44C203.506 116.322 204.356 115.427 205.564 115.427C206.746 115.427 207.564 116.271 207.571 117.44H203.448Z" fill="black"/>
<path d="M211.911 123.34H214.634V117.786C214.634 116.577 215.516 115.746 216.718 115.746C217.095 115.746 217.613 115.81 217.868 115.894V113.477C217.626 113.42 217.287 113.381 217.012 113.381C215.912 113.381 215.011 114.021 214.653 115.235H214.551V113.522H211.911V123.34Z" fill="black"/>
<path d="M232.596 113.522H229.713L227.68 120.547H227.578L225.539 113.522H222.662L226.095 123.34H229.163L232.596 113.522Z" fill="black"/>
<path d="M233.989 123.34H236.712V113.522H233.989V123.34ZM235.357 112.256C236.169 112.256 236.834 111.636 236.834 110.876C236.834 110.121 236.169 109.501 235.357 109.501C234.552 109.501 233.887 110.121 233.887 110.876C233.887 111.636 234.552 112.256 235.357 112.256Z" fill="black"/>
<path d="M247.062 116.322C246.82 114.513 245.362 113.394 242.882 113.394C240.37 113.394 238.714 114.558 238.721 116.45C238.714 117.92 239.641 118.872 241.559 119.256L243.259 119.595C244.116 119.767 244.506 120.08 244.518 120.572C244.506 121.154 243.873 121.57 242.92 121.57C241.949 121.57 241.303 121.154 241.137 120.355L238.459 120.496C238.714 122.375 240.312 123.532 242.914 123.532C245.458 123.532 247.28 122.234 247.286 120.298C247.28 118.879 246.353 118.028 244.448 117.639L242.671 117.281C241.757 117.082 241.418 116.769 241.425 116.296C241.418 115.708 242.083 115.325 242.927 115.325C243.873 115.325 244.435 115.842 244.57 116.475L247.062 116.322Z" fill="black"/>
<path d="M249.001 123.34H251.724V113.522H249.001V123.34ZM250.369 112.256C251.181 112.256 251.845 111.636 251.845 110.876C251.845 110.121 251.181 109.501 250.369 109.501C249.563 109.501 248.899 110.121 248.899 110.876C248.899 111.636 249.563 112.256 250.369 112.256Z" fill="black"/>
<path d="M258.341 123.532C261.32 123.532 263.174 121.493 263.174 118.47C263.174 115.427 261.32 113.394 258.341 113.394C255.363 113.394 253.509 115.427 253.509 118.47C253.509 121.493 255.363 123.532 258.341 123.532ZM258.354 121.423C256.98 121.423 256.277 120.163 256.277 118.45C256.277 116.737 256.98 115.472 258.354 115.472C259.703 115.472 260.406 116.737 260.406 118.45C260.406 120.163 259.703 121.423 258.354 121.423Z" fill="black"/>
<path d="M267.667 117.664C267.674 116.398 268.428 115.657 269.527 115.657C270.62 115.657 271.279 116.373 271.272 117.575V123.34H273.995V117.089C273.995 114.8 272.653 113.394 270.608 113.394C269.15 113.394 268.096 114.11 267.654 115.254H267.539V113.522H264.944V123.34H267.667V117.664Z" fill="black"/>
</g>
<path d="M42.689 115.829C55.222 115.829 65.378 105.348 65.378 92.4143C65.378 79.4807 55.222 69 42.689 69C30.156 69 20 79.4807 20 92.4143C20 105.348 30.156 115.829 42.689 115.829Z" fill="#459C9D"/>
<path d="M52.3176 83.486C52.2216 79.6291 49.2684 76.5403 45.627 76.5403C42.9219 76.5403 40.601 78.2499 39.5446 80.711C38.8963 80.2072 38.096 79.9017 37.2317 79.9017C35.2469 79.9017 33.6142 81.4709 33.3501 83.5025C33.2541 83.4943 33.15 83.486 33.054 83.486C30.8851 83.486 29.1324 85.3608 29.1324 87.665C29.1324 89.9692 30.8851 91.844 33.054 91.844H52.3176C54.4865 91.844 56.2392 89.9692 56.2392 87.665C56.2392 85.3525 54.4785 83.486 52.3176 83.486Z" stroke="white" stroke-miterlimit="10" stroke-linecap="round" stroke-linejoin="round"/>
<path d="M52.3176 83.486C52.2216 79.6291 49.2684 76.5403 45.627 76.5403C42.9219 76.5403 40.601 78.2499 39.5446 80.711C38.8963 80.2072 38.096 79.9017 37.2317 79.9017C35.2469 79.9017 33.6142 81.4709 33.3501 83.5025C33.2541 83.4943 33.15 83.486 33.054 83.486C30.8851 83.486 29.1324 85.3608 29.1324 87.665C29.1324 89.9692 30.8851 91.844 33.054 91.844H52.3176C54.4865 91.844 56.2392 89.9692 56.2392 87.665C56.2392 85.3525 54.4785 83.486 52.3176 83.486Z" stroke="white" stroke-miterlimit="10" stroke-linecap="round" stroke-linejoin="round"/>
<path d="M52.3328 87.5162H33.0452V98.1619H52.3328V87.5162Z" fill="#459C9D" stroke="white" stroke-miterlimit="10" stroke-linecap="round" stroke-linejoin="round"/>
<path d="M29.0516 105.323H56.3184" stroke="white" stroke-miterlimit="10" stroke-linecap="round" stroke-linejoin="round" stroke-dasharray="2 2"/>
<path d="M43.6653 106.614C44.3557 106.044 44.4677 105.004 43.9155 104.292C43.3634 103.579 42.3562 103.464 41.6658 104.034C40.9755 104.603 40.8635 105.643 41.4157 106.355C41.9678 107.068 42.975 107.183 43.6653 106.614Z" fill="#459C9D" stroke="white" stroke-miterlimit="10" stroke-linecap="round" stroke-linejoin="round"/>
<path d="M42.689 103.671V98.1624" stroke="white" stroke-miterlimit="10" stroke-linecap="round" stroke-linejoin="round"/>
<path d="M38.6794 90.5643L35.9343 92.9678L38.6794 95.2804" fill="#459C9D"/>
<path d="M38.6794 90.5643L35.9343 92.9678L38.6794 95.2804" stroke="white" stroke-miterlimit="10" stroke-linecap="round" stroke-linejoin="round"/>
<path d="M46.6906 90.5643L49.4357 92.9678L46.6906 95.2804" fill="#459C9D"/>
<path d="M46.6906 90.5643L49.4357 92.9678L46.6906 95.2804" stroke="white" stroke-miterlimit="10" stroke-linecap="round" stroke-linejoin="round"/>
<path d="M44.2976 90.3328L41.1284 95.5116" stroke="white" stroke-miterlimit="10" stroke-linecap="round" stroke-linejoin="round"/>
<path d="M44.689 48.0232C57.222 48.0232 67.378 37.4201 67.378 24.3355C67.378 11.2509 57.222 0.647827 44.689 0.647827C32.156 0.647827 22 11.2509 22 24.3355C22 37.4201 32.156 48.0232 44.689 48.0232Z" fill="#459C9D"/>
<path d="M54.845 21.2858H34.5409L28.5386 35.6153H60.8314L54.845 21.2858Z" fill="#459C9D" stroke="white" stroke-miterlimit="10" stroke-linecap="round" stroke-linejoin="round"/>
<path d="M51.9559 27.6026C51.8118 27.2851 46.7378 18.5203 46.3216 17.5761C45.9135 16.6319 45.3212 14.4929 46.7458 12.0281C48.1624 9.56323 50.3552 8.85303 52.0119 8.85303C53.7806 8.85303 55.7734 9.78047 56.8778 11.4265C58.6065 14.0167 58.2063 16.2476 57.8782 17.1333C57.4701 18.2278 56.6297 19.7402 55.4613 21.7455C53.7486 24.6782 51.9559 27.6026 51.9559 27.6026Z" fill="#459C9D" stroke="white" stroke-miterlimit="10" stroke-linecap="round" stroke-linejoin="round"/>
<path d="M52.0039 17.3922C53.2768 17.3922 54.3088 16.3148 54.3088 14.9858C54.3088 13.6568 53.2768 12.5795 52.0039 12.5795C50.7309 12.5795 49.6989 13.6568 49.6989 14.9858C49.6989 16.3148 50.7309 17.3922 52.0039 17.3922Z" fill="#459C9D" stroke="white" stroke-miterlimit="10" stroke-linecap="round" stroke-linejoin="round"/>
<path d="M33.6446 23.4248C34.1488 23.4499 35.6054 23.5083 37.7262 23.8008C39.0307 23.9762 40.4393 24.7867 40.9755 25.5137C42.3761 27.4187 41.3917 28.7723 44.2648 29.9253C47.298 31.1369 51.6838 30.7358 53.7566 32.5573C55.3172 33.9276 55.8214 35.6321 55.8214 35.6321" fill="#459C9D"/>
<path d="M33.6446 23.4248C34.1488 23.4499 35.6054 23.5083 37.7262 23.8008C39.0307 23.9762 40.4393 24.7867 40.9755 25.5137C42.3761 27.4187 41.3917 28.7723 44.2648 29.9253C47.298 31.1369 51.6838 30.7358 53.7566 32.5573C55.3172 33.9276 55.8214 35.6321 55.8214 35.6321" stroke="white" stroke-miterlimit="10" stroke-linecap="round" stroke-linejoin="round"/>
<path d="M32.9483 25.6724C34.9171 25.6724 37.6061 25.6723 38.5345 26.934C39.9351 28.8391 39.1268 30.6438 42.16 31.9473C43.7046 32.6074 45.7854 32.95 47.5701 33.2173C52.0279 33.8941 52.0279 35.6153 52.0279 35.6153" fill="#459C9D"/>
<path d="M32.9483 25.6724C34.9171 25.6724 37.6061 25.6723 38.5345 26.934C39.9351 28.8391 39.1268 30.6438 42.16 31.9473C43.7046 32.6074 45.7854 32.95 47.5701 33.2173C52.0279 33.8941 52.0279 35.6153 52.0279 35.6153" stroke="white" stroke-miterlimit="10" stroke-linecap="round" stroke-linejoin="round"/>
<defs>
<clipPath id="clip0">
<rect x="80" y="13" width="199.838" height="114.163" fill="white"/>
</clipPath>
</defs>
</svg>
