<svg width="337" height="246" viewBox="0 0 337 246" fill="none" xmlns="http://www.w3.org/2000/svg">
<path d="M20.1996 135.399C30.8033 135.399 39.3992 126.803 39.3992 116.2C39.3992 105.596 30.8033 97 20.1996 97C9.59595 97 1 105.596 1 116.2C1 126.803 9.59595 135.399 20.1996 135.399Z" fill="white" stroke="#459C9D" stroke-width="2" stroke-miterlimit="10"/>
<path d="M142.008 42.0167C153.613 42.0167 163.017 32.6129 163.017 21.0083C163.017 9.40373 153.613 0 142.008 0C130.404 0 121 9.40373 121 21.0083C121 32.6129 130.404 42.0167 142.008 42.0167Z" fill="#459C9D"/>
<path d="M143.961 10.5242C145.346 10.5242 146.466 9.33975 146.466 7.87517C146.466 6.42659 145.346 5.23413 143.961 5.23413C142.585 5.23413 141.464 6.42659 141.464 7.87517C141.464 9.33975 142.585 10.5242 143.961 10.5242Z" fill="#459C9D" stroke="white" stroke-miterlimit="10" stroke-linecap="round" stroke-linejoin="round"/>
<path d="M142.128 11.6447L142.945 11.8208C144.233 12.1009 145.314 12.9813 145.85 14.1897L147.275 17.391L149.803 19.3198C150.228 19.6479 150.34 20.2401 150.06 20.6963C149.747 21.2005 149.083 21.3446 148.595 21.0244L146.418 19.5839C145.906 19.2477 145.482 18.7995 145.162 18.2713L144.217 16.7027L143.481 21.8808L147.395 28.0112L148.259 34.7819C148.363 35.6222 147.771 36.3905 146.922 36.4946C146.098 36.5986 145.338 36.0224 145.218 35.1981L144.377 29.4918L141.944 25.9624L140.096 30.8603L136.566 35.9904C136.07 36.7107 135.078 36.8627 134.389 36.3265C133.789 35.8543 133.629 34.998 134.037 34.3497L137.455 28.7795L138.775 22.8412L138.479 22.2009C138.327 21.8648 138.271 21.4886 138.335 21.1205L139.247 15.3902L136.87 17.295L135.91 21.6327C135.79 22.1609 135.294 22.513 134.766 22.441L134.726 22.433C134.133 22.361 133.725 21.8087 133.821 21.2245L134.509 17.1589C134.693 16.0545 135.294 15.0701 136.182 14.3898L138.807 12.389C139.751 11.6607 140.968 11.3886 142.128 11.6447Z" fill="#459C9D" stroke="white" stroke-miterlimit="10" stroke-linecap="round" stroke-linejoin="round"/>
<path d="M142.008 103.017C153.611 103.017 163.017 93.6109 163.017 82.0083C163.017 70.4057 153.611 61 142.008 61C130.406 61 121 70.4057 121 82.0083C121 93.6109 130.406 103.017 142.008 103.017Z" fill="#459C9D"/>
<path d="M125.146 89.0111H158.863" stroke="white" stroke-miterlimit="10" stroke-linecap="round" stroke-linejoin="round"/>
<path d="M126.978 85.762C126.978 85.2818 126.978 79.1674 126.978 76.5743C126.978 75.71 127.667 75.0297 128.531 75.0297C134.99 75.0297 141.44 75.0297 147.899 75.0297C148.307 75.0297 148.715 75.0137 149.115 75.0778C149.715 75.1658 150.188 75.654 150.292 76.2542C150.596 77.9989 150.892 79.7436 151.188 81.4963C151.292 82.1125 151.428 82.7208 151.492 83.337C151.548 83.8572 151.62 84.3935 151.364 84.8896C151.068 85.4579 150.588 85.77 149.94 85.778C149.675 85.778 149.411 85.778 149.131 85.778C149.147 85.778 128.307 85.762 126.978 85.762Z" fill="#459C9D" stroke="white" stroke-miterlimit="10" stroke-linecap="round" stroke-linejoin="round"/>
<path d="M133.141 88.4269C131.964 88.4269 130.996 87.4745 130.988 86.3061C130.988 85.0896 131.94 84.1372 133.149 84.1372C134.317 84.1372 135.278 85.1056 135.278 86.2821C135.286 87.4665 134.325 88.4269 133.141 88.4269Z" fill="#459C9D" stroke="white" stroke-miterlimit="10" stroke-linecap="round" stroke-linejoin="round"/>
<path d="M127.427 80.3115H145.426" stroke="white" stroke-miterlimit="10" stroke-linecap="round" stroke-linejoin="round"/>
<path d="M133.325 80.3116V75.0055" stroke="white" stroke-miterlimit="10" stroke-linecap="round" stroke-linejoin="round"/>
<path d="M139.519 80.3116V75.0055" stroke="white" stroke-miterlimit="10" stroke-linecap="round" stroke-linejoin="round"/>
<path d="M145.57 75.0055V80.3196C145.57 80.3196 146.898 82.3844 151.028 82.3844" fill="#459C9D"/>
<path d="M145.57 75.0055V80.3196C145.57 80.3196 146.898 82.3844 151.028 82.3844" stroke="white" stroke-miterlimit="10" stroke-linecap="round" stroke-linejoin="round"/>
<path d="M140.472 84.5695V86.8664H157.006L157.03 85.4738C157.038 84.8016 156.566 84.2093 155.91 84.0813L153.093 83.313L150.34 80.3518H144.633L141.72 83.329C141.032 83.329 140.472 83.8812 140.472 84.5695Z" fill="#459C9D" stroke="white" stroke-miterlimit="10" stroke-linecap="round" stroke-linejoin="round"/>
<path d="M152.965 83.3287H141.848" stroke="white" stroke-miterlimit="10" stroke-linecap="round" stroke-linejoin="round"/>
<path d="M147.443 83.329V80.3518" stroke="white" stroke-miterlimit="10" stroke-linecap="round" stroke-linejoin="round"/>
<path d="M144.441 88.571C143.505 88.571 142.737 87.8107 142.737 86.8824C142.737 85.914 143.489 85.1537 144.457 85.1537C145.386 85.1537 146.146 85.922 146.146 86.8584C146.146 87.8027 145.378 88.563 144.441 88.571Z" fill="#459C9D" stroke="white" stroke-miterlimit="10" stroke-linecap="round" stroke-linejoin="round"/>
<path d="M152.493 88.5788C151.556 88.5788 150.788 87.8186 150.788 86.8902C150.788 85.9218 151.54 85.1615 152.509 85.1615C153.437 85.1615 154.197 85.9298 154.197 86.8662C154.197 87.8106 153.437 88.5708 152.493 88.5788Z" fill="#459C9D" stroke="white" stroke-miterlimit="10" stroke-linecap="round" stroke-linejoin="round"/>
<path d="M142.008 164.017C153.613 164.017 163.017 154.613 163.017 143.008C163.017 131.404 153.613 122 142.008 122C130.404 122 121 131.404 121 143.008C121 154.613 130.404 164.017 142.008 164.017Z" fill="#459C9D"/>
<path d="M155.102 139.095H128.907V146.93H155.102V139.095Z" fill="#459C9D" stroke="white" stroke-miterlimit="10" stroke-linecap="round" stroke-linejoin="round"/>
<path d="M130.932 136.238H127.122V149.779H130.932V136.238Z" fill="#459C9D" stroke="white" stroke-miterlimit="10" stroke-linecap="round" stroke-linejoin="round"/>
<path d="M156.894 136.238H153.085V149.779H156.894V136.238Z" fill="#459C9D" stroke="white" stroke-miterlimit="10" stroke-linecap="round" stroke-linejoin="round"/>
<path d="M142.12 151.18C146.633 151.18 150.292 147.522 150.292 143.009C150.292 138.496 146.633 134.837 142.12 134.837C137.608 134.837 133.949 138.496 133.949 143.009C133.949 147.522 137.608 151.18 142.12 151.18Z" fill="#459C9D" stroke="white" stroke-miterlimit="10" stroke-linecap="round" stroke-linejoin="round"/>
<path d="M137.423 136.494L141 141.192" stroke="white" stroke-miterlimit="10" stroke-linecap="round" stroke-linejoin="round"/>
<path d="M143.241 141.024L146.706 136.406" stroke="white" stroke-miterlimit="10" stroke-linecap="round" stroke-linejoin="round"/>
<path d="M134.397 145.586L142.12 143.009L149.731 145.586" fill="#459C9D"/>
<path d="M134.397 145.586L142.12 143.009L149.731 145.586" stroke="white" stroke-miterlimit="10" stroke-linecap="round" stroke-linejoin="round"/>
<path d="M142.12 151.18V143.009" stroke="white" stroke-miterlimit="10" stroke-linecap="round" stroke-linejoin="round"/>
<path d="M144.432 143.487C144.671 142.214 143.833 140.988 142.56 140.749C141.287 140.511 140.062 141.349 139.823 142.621C139.584 143.894 140.422 145.12 141.695 145.359C142.968 145.598 144.193 144.76 144.432 143.487Z" fill="#459C9D" stroke="white" stroke-miterlimit="10" stroke-linecap="round" stroke-linejoin="round"/>
<path d="M142.008 244.017C153.611 244.017 163.017 234.611 163.017 223.008C163.017 211.406 153.611 202 142.008 202C130.406 202 121 211.406 121 223.008C121 234.611 130.406 244.017 142.008 244.017Z" fill="#459C9D"/>
<path d="M128.723 213.228C130.812 214.989 131.884 217.814 131.268 220.671C130.62 223.672 128.283 225.873 125.474 226.505" stroke="white" stroke-miterlimit="10" stroke-linecap="round" stroke-linejoin="round"/>
<path d="M130.7 210.667C133.749 213.164 135.318 217.246 134.429 221.36C133.509 225.625 130.204 228.755 126.21 229.659" stroke="white" stroke-miterlimit="10" stroke-linecap="round" stroke-linejoin="round"/>
<path d="M132.685 208.082C136.694 211.324 138.775 216.662 137.615 222.048C136.422 227.578 132.132 231.652 126.962 232.836" stroke="white" stroke-miterlimit="10" stroke-linecap="round" stroke-linejoin="round"/>
<path d="M127.939 234.445L156.078 234.525" stroke="white" stroke-miterlimit="10" stroke-linecap="round" stroke-linejoin="round"/>
<path d="M151.1 221.008V233.669C151.1 234.157 150.7 234.557 150.212 234.557C149.723 234.557 149.323 234.157 149.323 233.669V227.026" fill="#459C9D"/>
<path d="M151.1 221.008V233.669C151.1 234.157 150.7 234.557 150.212 234.557C149.723 234.557 149.323 234.157 149.323 233.669V227.026" stroke="white" stroke-miterlimit="10"/>
<path d="M147.683 220.952V226.146C147.683 226.586 147.411 226.954 147.066 226.954C146.73 226.954 146.45 226.594 146.45 226.146V220.119C146.45 219.759 146.674 219.431 147.01 219.303L148.579 218.695V217.942" fill="#459C9D"/>
<path d="M147.683 220.952V226.146C147.683 226.586 147.411 226.954 147.066 226.954C146.73 226.954 146.45 226.594 146.45 226.146V220.119C146.45 219.759 146.674 219.431 147.01 219.303L148.579 218.695V217.942" stroke="white" stroke-miterlimit="10"/>
<path d="M150.94 220.952V226.146C150.94 226.586 151.212 226.954 151.556 226.954C151.892 226.954 152.172 226.594 152.172 226.146V220.119C152.172 219.759 151.948 219.431 151.612 219.303L150.044 218.695V217.958" fill="#459C9D"/>
<path d="M150.94 220.952V226.146C150.94 226.586 151.212 226.954 151.556 226.954C151.892 226.954 152.172 226.594 152.172 226.146V220.119C152.172 219.759 151.948 219.431 151.612 219.303L150.044 218.695V217.958" stroke="white" stroke-miterlimit="10"/>
<path d="M149.323 227.034V233.676C149.323 234.165 148.923 234.565 148.435 234.565C147.947 234.565 147.547 234.165 147.547 233.676V226.674" fill="#459C9D"/>
<path d="M149.323 227.034V233.676C149.323 234.165 148.923 234.565 148.435 234.565C147.947 234.565 147.547 234.165 147.547 233.676V226.674" stroke="white" stroke-miterlimit="10"/>
<path d="M148.123 216.678V216.133C148.123 215.301 148.659 214.613 149.315 214.613C149.971 214.613 150.508 215.293 150.508 216.133V216.734V216.19V216.734C150.508 217.566 149.971 218.254 149.315 218.254C148.659 218.254 148.123 217.574 148.123 216.734V216.133" fill="#459C9D"/>
<path d="M148.123 216.678V216.133C148.123 215.301 148.659 214.613 149.315 214.613C149.971 214.613 150.508 215.293 150.508 216.133V216.734V216.19V216.734C150.508 217.566 149.971 218.254 149.315 218.254C148.659 218.254 148.123 217.574 148.123 216.734V216.133" stroke="white" stroke-miterlimit="10"/>
<path d="M141.24 208.171V234.557" stroke="white" stroke-miterlimit="10" stroke-linecap="round" stroke-linejoin="round"/>
<path d="M144.609 216.454C144.609 221.552 143.017 225.681 141.056 225.681C139.095 225.681 137.503 221.552 137.503 216.454C137.503 211.355 139.095 207.226 141.056 207.226C143.017 207.226 144.609 211.355 144.609 216.454Z" fill="#459C9D" stroke="white" stroke-miterlimit="10" stroke-linecap="round" stroke-linejoin="round"/>
<path d="M144.609 216.454C144.609 221.552 143.017 225.681 141.056 225.681C139.095 225.681 137.503 221.552 137.503 216.454C137.503 211.355 139.095 207.226 141.056 207.226C143.017 207.226 144.609 211.355 144.609 216.454Z" fill="#459C9D" stroke="white" stroke-miterlimit="10" stroke-linecap="round" stroke-linejoin="round"/>
<path d="M20.1996 195.399C30.8033 195.399 39.3992 186.803 39.3992 176.2C39.3992 165.596 30.8033 157 20.1996 157C9.59595 157 1 165.596 1 176.2C1 186.803 9.59595 195.399 20.1996 195.399Z" fill="white" stroke="black" stroke-miterlimit="10"/>
<path d="M4 50H63.6602C70.0575 50 75.2373 43.3872 75.2373 35.2307V33.7693C75.2373 25.6129 80.4254 19 86.8145 19H123" stroke="#459C9D" stroke-miterlimit="10"/>
<path d="M6 53H68.3024C74.5648 53 79.6354 57.5889 79.6354 63.2558V71.7442C79.6354 77.4111 84.7141 82 90.9685 82H123" stroke="#459C9D" stroke-miterlimit="10"/>
<path d="M1.5 56.0613L64.4139 56.0613C70.6804 56.0613 75.7544 61.0312 75.7544 67.1697V132C75.7544 138.138 80.8364 143.108 87.0949 143.108H123.157" stroke="#459C9D" stroke-miterlimit="10"/>
<path d="M5 59.5H60.1952C66.4134 59.5 71.4483 65.3244 71.4483 72.5038V209.5C71.4483 216.679 76.4911 222.504 82.7013 222.504H129" stroke="#459C9D" stroke-miterlimit="10"/>
<path d="M20.1996 73.3992C30.8033 73.3992 39.3992 64.8033 39.3992 54.1996C39.3992 43.596 30.8033 35 20.1996 35C9.59595 35 1 43.596 1 54.1996C1 64.8033 9.59595 73.3992 20.1996 73.3992Z" fill="white" stroke="#AC7679" stroke-width="2" stroke-miterlimit="10"/>
<path d="M21.6458 47.9091H19.0442L15.8035 49.9609V52.4155L18.8013 50.5362H18.878V61H21.6458V47.9091Z" fill="#AC7679"/>
<path d="M15.0611 122H24.3935V119.737H18.8963V119.648L20.8075 117.775C23.4986 115.32 24.2209 114.093 24.2209 112.604C24.2209 110.335 22.3672 108.73 19.5611 108.73C16.8125 108.73 14.9268 110.373 14.9332 112.942H17.5604C17.554 111.69 18.3466 110.923 19.5419 110.923C20.6925 110.923 21.549 111.638 21.549 112.789C21.549 113.831 20.9098 114.547 19.7209 115.691L15.0611 120.006V122Z" fill="#459C9D"/>
<path d="M19.8999 183.179C22.8402 183.179 24.9432 181.562 24.9368 179.325C24.9432 177.695 23.9077 176.531 21.9837 176.288V176.186C23.4474 175.924 24.4574 174.888 24.451 173.418C24.4574 171.354 22.6484 169.73 19.9382 169.73C17.2536 169.73 15.2337 171.303 15.1953 173.565H17.848C17.88 172.568 18.794 171.923 19.9254 171.923C21.044 171.923 21.7919 172.6 21.7855 173.585C21.7919 174.614 20.9162 175.31 19.657 175.31H18.4361V177.343H19.657C21.1399 177.343 22.0668 178.085 22.0604 179.139C22.0668 180.181 21.1719 180.897 19.9062 180.897C18.6854 180.897 17.7713 180.258 17.7202 179.299H14.9332C14.978 181.587 17.0234 183.179 19.8999 183.179Z" fill="black"/>
<path d="M28.6563 69.6609H28.6723C28.6723 69.7729 28.6803 69.845 28.6803 69.845L32.1297 73.5744L32.2018 70.6613H32.2177C32.2177 70.7333 32.2177 70.7733 32.2177 70.7733L35.7552 74.5588L35.8192 72.0778C35.8192 72.1899 35.8272 72.2619 35.8272 72.2619L39.2765 75.9994L39.3406 73.3023H39.3646L39.1005 84.5228C39.0445 86.5716 37.3718 88.2122 35.3149 88.2363L28.5523 88.3083C26.9677 88.3243 25.5591 87.3079 25.0549 85.8033C24.5907 84.4027 23.9584 82.8501 23.3022 82.3379C22.4218 81.6496 19.9569 79.4328 18.5163 78.1282C17.9001 77.568 17.828 76.6397 18.3402 75.9914C18.8364 75.3672 19.7088 75.2151 20.381 75.6232C20.4451 75.6633 20.5011 75.7033 20.5571 75.7513L24.8868 79.2487L25.287 63.6665C25.311 62.7622 26.0313 62.0419 26.9276 62.0019C27.2718 61.9858 27.5999 62.0819 27.872 62.2419C28.3682 62.5381 28.7044 63.0903 28.6964 63.7145L28.6563 69.6609Z" fill="white"/>
<path d="M39.3406 73.3023L39.2765 75.9994L35.8272 72.2619C35.8272 72.2619 35.8192 72.1899 35.8192 72.0778C35.8272 71.6537 36.0033 70.6293 37.5559 70.6213C39.0925 70.6133 39.3886 71.5496 39.3646 72.502L39.3406 73.3023Z" fill="white"/>
<path d="M35.8111 72.0859L35.7471 74.5669L32.2097 70.7814C32.2097 70.7814 32.2017 70.7334 32.2097 70.6694C32.2177 70.3012 32.3858 69.2048 34.0264 69.1968C35.563 69.1968 35.8591 70.1252 35.8351 71.0775L35.8111 72.0859Z" fill="white"/>
<path d="M32.2017 70.6614L32.1297 73.5746L28.6803 69.8451C28.6803 69.8451 28.6723 69.7731 28.6723 69.6611C28.6803 69.2289 28.8564 68.2125 30.409 68.2045C31.9456 68.2045 32.2417 69.1328 32.2177 70.0852L32.2017 70.6614Z" fill="white"/>
<path d="M28.6803 69.8371C28.6803 69.8371 28.6723 69.765 28.6723 69.653C28.6803 69.2208 28.8564 68.2044 30.409 68.1964C31.9456 68.1964 32.2417 69.1248 32.2177 70.0772L32.2017 70.6534L32.1297 73.5666" stroke="#459C9D" stroke-miterlimit="10" stroke-linecap="round" stroke-linejoin="round"/>
<path d="M32.2177 70.7735C32.2177 70.7735 32.2097 70.7254 32.2177 70.6614C32.2257 70.2933 32.3938 69.1968 34.0344 69.1888C35.571 69.1888 35.8671 70.1172 35.8431 71.0696L35.8191 72.078L35.7551 74.559" stroke="#459C9D" stroke-miterlimit="10" stroke-linecap="round" stroke-linejoin="round"/>
<path d="M35.8191 72.2619C35.8191 72.2619 35.8111 72.1899 35.8111 72.0778C35.8191 71.6537 35.9952 70.6293 37.5478 70.6213C39.0844 70.6133 39.3806 71.5496 39.3565 72.502L39.3405 73.2943L39.2765 75.9914" stroke="#459C9D" stroke-miterlimit="10" stroke-linecap="round" stroke-linejoin="round"/>
<path d="M39.3646 73.3023L39.1005 84.5228C39.0445 86.5716 37.3718 88.2122 35.3149 88.2363L28.5523 88.3083C26.9677 88.3243 25.5591 87.3079 25.0549 85.8033C24.5907 84.4027 23.9584 82.8501 23.3022 82.3379C22.4218 81.6496 19.9569 79.4328 18.5163 78.1282C17.9001 77.568 17.828 76.6397 18.3402 75.9914C18.8364 75.3672 19.7088 75.2151 20.381 75.6232C20.4451 75.6633 20.5011 75.7033 20.5571 75.7513L24.8868 79.2487L25.287 63.6665C25.311 62.7622 26.0313 62.0419 26.9276 62.0019C27.2718 61.9858 27.5999 62.0819 27.872 62.2419C28.3682 62.5381 28.7044 63.0903 28.6964 63.7145L28.6563 69.6529L28.6243 73.7905" stroke="#459C9D" stroke-miterlimit="10" stroke-linecap="round" stroke-linejoin="round"/>
<g clip-path="url(#clip0)">
<path d="M180.486 15.8388H183.254V11.5945H185.58C188.591 11.5945 190.342 9.7983 190.342 7.18395C190.342 4.58239 188.623 2.74787 185.651 2.74787H180.486V15.8388ZM183.254 9.37642V5.01065H185.12C186.718 5.01065 187.491 5.87997 187.491 7.18395C187.491 8.48153 186.718 9.37642 185.133 9.37642H183.254Z" fill="black"/>
<path d="M196.405 16.0305C198.834 16.0305 200.471 14.848 200.854 13.0263L198.336 12.8601C198.061 13.608 197.358 13.9979 196.45 13.9979C195.088 13.9979 194.225 13.0966 194.225 11.6328V11.6264H200.912V10.8786C200.912 7.5419 198.892 5.89276 196.297 5.89276C193.407 5.89276 191.534 7.9446 191.534 10.9744C191.534 14.0874 193.382 16.0305 196.405 16.0305ZM194.225 9.93892C194.283 8.82031 195.133 7.92543 196.341 7.92543C197.524 7.92543 198.342 8.76918 198.348 9.93892H194.225Z" fill="black"/>
<path d="M206.306 15.9986C207.892 15.9986 208.716 15.0845 209.093 14.2663H209.208V15.8388H211.893V2.74787H209.176V7.66974H209.093C208.729 6.87074 207.943 5.89276 206.3 5.89276C204.146 5.89276 202.324 7.56747 202.324 10.9425C202.324 14.228 204.069 15.9986 206.306 15.9986ZM207.169 13.8317C205.833 13.8317 205.105 12.6428 205.105 10.9297C205.105 9.2294 205.821 8.05966 207.169 8.05966C208.493 8.05966 209.234 9.17827 209.234 10.9297C209.234 12.6811 208.48 13.8317 207.169 13.8317Z" fill="black"/>
<path d="M218.606 16.0305C221.035 16.0305 222.672 14.848 223.055 13.0263L220.537 12.8601C220.262 13.608 219.559 13.9979 218.651 13.9979C217.29 13.9979 216.427 13.0966 216.427 11.6328V11.6264H223.113V10.8786C223.113 7.5419 221.093 5.89276 218.498 5.89276C215.608 5.89276 213.736 7.9446 213.736 10.9744C213.736 14.0874 215.583 16.0305 218.606 16.0305ZM216.427 9.93892C216.484 8.82031 217.334 7.92543 218.542 7.92543C219.725 7.92543 220.543 8.76918 220.55 9.93892H216.427Z" fill="black"/>
<path d="M233.059 8.82031C232.816 7.01136 231.358 5.89276 228.878 5.89276C226.366 5.89276 224.711 7.05611 224.717 8.94815C224.711 10.4183 225.638 11.3707 227.555 11.7543L229.256 12.093C230.112 12.2656 230.502 12.5788 230.515 13.071C230.502 13.6527 229.869 14.0682 228.917 14.0682C227.945 14.0682 227.3 13.6527 227.133 12.8537L224.455 12.9943C224.711 14.8736 226.309 16.0305 228.91 16.0305C231.454 16.0305 233.276 14.733 233.282 12.7962C233.276 11.3771 232.349 10.527 230.444 10.1371L228.667 9.77912C227.753 9.58097 227.415 9.26776 227.421 8.79474C227.415 8.20668 228.079 7.82315 228.923 7.82315C229.869 7.82315 230.432 8.34091 230.566 8.97372L233.059 8.82031Z" fill="black"/>
<path d="M240.219 6.0206H238.372V3.66832H235.649V6.0206H234.307V8.06605H235.649V13.1797C235.636 15.1037 236.947 16.0561 238.922 15.973C239.625 15.9474 240.124 15.8068 240.398 15.7173L239.97 13.6911C239.836 13.7166 239.548 13.7805 239.293 13.7805C238.749 13.7805 238.372 13.576 238.372 12.8217V8.06605H240.219V6.0206Z" fill="black"/>
<path d="M241.993 15.8388H244.716V10.2841C244.716 9.07599 245.598 8.24503 246.8 8.24503C247.177 8.24503 247.695 8.30895 247.951 8.39205V5.97585C247.708 5.91832 247.369 5.87997 247.094 5.87997C245.995 5.87997 245.093 6.51918 244.735 7.73366H244.633V6.0206H241.993V15.8388Z" fill="black"/>
<path d="M249.358 15.8388H252.082V6.0206H249.358V15.8388ZM250.726 4.75497C251.538 4.75497 252.203 4.13494 252.203 3.37429C252.203 2.62003 251.538 2 250.726 2C249.921 2 249.256 2.62003 249.256 3.37429C249.256 4.13494 249.921 4.75497 250.726 4.75497Z" fill="black"/>
<path d="M257.062 16.0241C258.513 16.0241 259.453 15.3913 259.933 14.4773H260.009V15.8388H262.592V9.21662C262.592 6.87713 260.61 5.89276 258.424 5.89276C256.072 5.89276 254.525 7.01776 254.148 8.80753L256.666 9.01207C256.852 8.36009 257.433 7.88068 258.411 7.88068C259.338 7.88068 259.869 8.3473 259.869 9.1527V9.19105C259.869 9.82386 259.197 9.90696 257.491 10.0732C255.548 10.2521 253.803 10.9041 253.803 13.0966C253.803 15.0398 255.19 16.0241 257.062 16.0241ZM257.842 14.1449C257.005 14.1449 256.404 13.755 256.404 13.0071C256.404 12.2401 257.037 11.8629 257.996 11.7287C258.59 11.6456 259.562 11.505 259.888 11.2876V12.3295C259.888 13.3587 259.038 14.1449 257.842 14.1449Z" fill="black"/>
<path d="M267.427 10.1626C267.434 8.89702 268.188 8.15554 269.287 8.15554C270.38 8.15554 271.039 8.87145 271.032 10.0732V15.8388H273.755V9.58736C273.755 7.29901 272.413 5.89276 270.368 5.89276C268.91 5.89276 267.855 6.60866 267.414 7.75284H267.299V6.0206H264.704V15.8388H267.427V10.1626Z" fill="black"/>
<path d="M285.29 6.0206H283.442V3.66832H280.719V6.0206H279.377V8.06605H280.719V13.1797C280.707 15.1037 282.017 16.0561 283.992 15.973C284.695 15.9474 285.194 15.8068 285.469 15.7173L285.04 13.6911C284.906 13.7166 284.619 13.7805 284.363 13.7805C283.82 13.7805 283.442 13.576 283.442 12.8217V8.06605H285.29V6.0206Z" fill="black"/>
<path d="M287.064 15.8388H289.787V10.2841C289.787 9.07599 290.669 8.24503 291.87 8.24503C292.248 8.24503 292.765 8.30895 293.021 8.39205V5.97585C292.778 5.91832 292.439 5.87997 292.164 5.87997C291.065 5.87997 290.164 6.51918 289.806 7.73366H289.703V6.0206H287.064V15.8388Z" fill="black"/>
<path d="M296.947 16.0241C298.398 16.0241 299.338 15.3913 299.817 14.4773H299.894V15.8388H302.476V9.21662C302.476 6.87713 300.495 5.89276 298.309 5.89276C295.957 5.89276 294.41 7.01776 294.032 8.80753L296.551 9.01207C296.736 8.36009 297.318 7.88068 298.296 7.88068C299.223 7.88068 299.753 8.3473 299.753 9.1527V9.19105C299.753 9.82386 299.082 9.90696 297.376 10.0732C295.432 10.2521 293.687 10.9041 293.687 13.0966C293.687 15.0398 295.074 16.0241 296.947 16.0241ZM297.727 14.1449C296.89 14.1449 296.289 13.755 296.289 13.0071C296.289 12.2401 296.922 11.8629 297.881 11.7287C298.475 11.6456 299.447 11.505 299.773 11.2876V12.3295C299.773 13.3587 298.922 14.1449 297.727 14.1449Z" fill="black"/>
<path d="M309.025 16.0305C311.639 16.0305 313.282 14.4964 313.41 12.2401H310.84C310.681 13.2884 309.99 13.8764 309.057 13.8764C307.785 13.8764 306.96 12.8089 306.96 10.9297C306.96 9.07599 307.791 8.01491 309.057 8.01491C310.054 8.01491 310.693 8.6733 310.84 9.65128H313.41C313.295 7.3821 311.575 5.89276 309.012 5.89276C306.034 5.89276 304.193 7.95739 304.193 10.968C304.193 13.9531 306.002 16.0305 309.025 16.0305Z" fill="black"/>
<path d="M315.153 15.8388H317.876V12.7195L318.611 11.8821L321.29 15.8388H324.479L320.651 10.2713L324.294 6.0206H321.168L318.023 9.74716H317.876V2.74787H315.153V15.8388Z" fill="black"/>
<path d="M188.604 30.8203C188.361 29.0114 186.903 27.8928 184.423 27.8928C181.911 27.8928 180.256 29.0561 180.262 30.9482C180.256 32.4183 181.183 33.3707 183.1 33.7543L184.8 34.093C185.657 34.2656 186.047 34.5788 186.06 35.071C186.047 35.6527 185.414 36.0682 184.462 36.0682C183.49 36.0682 182.844 35.6527 182.678 34.8537L180 34.9943C180.256 36.8736 181.854 38.0305 184.455 38.0305C186.999 38.0305 188.821 36.733 188.827 34.7962C188.821 33.3771 187.894 32.527 185.989 32.1371L184.212 31.7791C183.298 31.581 182.96 31.2678 182.966 30.7947C182.96 30.2067 183.624 29.8232 184.468 29.8232C185.414 29.8232 185.977 30.3409 186.111 30.9737L188.604 30.8203Z" fill="black"/>
<path d="M194.978 38.0305C197.957 38.0305 199.811 35.9915 199.811 32.968C199.811 29.9254 197.957 27.8928 194.978 27.8928C191.999 27.8928 190.146 29.9254 190.146 32.968C190.146 35.9915 191.999 38.0305 194.978 38.0305ZM194.991 35.9212C193.617 35.9212 192.914 34.6619 192.914 32.9489C192.914 31.2358 193.617 29.9702 194.991 29.9702C196.34 29.9702 197.043 31.2358 197.043 32.9489C197.043 34.6619 196.34 35.9212 194.991 35.9212Z" fill="black"/>
<path d="M204.304 24.7479H201.581V37.8388H204.304V24.7479Z" fill="black"/>
<path d="M212.782 33.6584C212.788 34.9751 211.887 35.6655 210.909 35.6655C209.88 35.6655 209.215 34.9432 209.208 33.7862V28.0206H206.485V34.272C206.492 36.5668 207.834 37.9666 209.809 37.9666C211.286 37.9666 212.347 37.206 212.788 36.0554H212.89V37.8388H215.505V28.0206H212.782V33.6584Z" fill="black"/>
<path d="M222.905 28.0206H221.058V25.6683H218.335V28.0206H216.992V30.0661H218.335V35.1797C218.322 37.1037 219.632 38.0561 221.607 37.973C222.311 37.9474 222.809 37.8068 223.084 37.7173L222.656 35.6911C222.521 35.7166 222.234 35.7805 221.978 35.7805C221.435 35.7805 221.058 35.576 221.058 34.8217V30.0661H222.905V28.0206Z" fill="black"/>
<path d="M224.679 37.8388H227.402V28.0206H224.679V37.8388ZM226.047 26.755C226.858 26.755 227.523 26.1349 227.523 25.3743C227.523 24.62 226.858 24 226.047 24C225.241 24 224.577 24.62 224.577 25.3743C224.577 26.1349 225.241 26.755 226.047 26.755Z" fill="black"/>
<path d="M234.019 38.0305C236.998 38.0305 238.852 35.9915 238.852 32.968C238.852 29.9254 236.998 27.8928 234.019 27.8928C231.04 27.8928 229.187 29.9254 229.187 32.968C229.187 35.9915 231.04 38.0305 234.019 38.0305ZM234.032 35.9212C232.658 35.9212 231.955 34.6619 231.955 32.9489C231.955 31.2358 232.658 29.9702 234.032 29.9702C235.381 29.9702 236.084 31.2358 236.084 32.9489C236.084 34.6619 235.381 35.9212 234.032 35.9212Z" fill="black"/>
<path d="M243.345 32.1626C243.352 30.897 244.106 30.1555 245.205 30.1555C246.298 30.1555 246.957 30.8714 246.95 32.0732V37.8388H249.673V31.5874C249.673 29.299 248.331 27.8928 246.286 27.8928C244.828 27.8928 243.773 28.6087 243.332 29.7528H243.217V28.0206H240.622V37.8388H243.345V32.1626Z" fill="black"/>
<path d="M259.988 30.8203C259.746 29.0114 258.288 27.8928 255.808 27.8928C253.296 27.8928 251.64 29.0561 251.647 30.9482C251.64 32.4183 252.567 33.3707 254.485 33.7543L256.185 34.093C257.042 34.2656 257.432 34.5788 257.444 35.071C257.432 35.6527 256.799 36.0682 255.846 36.0682C254.875 36.0682 254.229 35.6527 254.063 34.8537L251.385 34.9943C251.64 36.8736 253.238 38.0305 255.84 38.0305C258.384 38.0305 260.206 36.733 260.212 34.7962C260.206 33.3771 259.279 32.527 257.374 32.1371L255.597 31.7791C254.683 31.581 254.344 31.2678 254.351 30.7947C254.344 30.2067 255.009 29.8232 255.853 29.8232C256.799 29.8232 257.361 30.3409 257.496 30.9737L259.988 30.8203Z" fill="black"/>
<path d="M180 70.7784V83.8693H182.685V75.3167H182.793L186.181 83.8054H188.009L191.397 75.3487H191.506V83.8693H194.19V70.7784H190.777L187.172 79.5738H187.018L183.413 70.7784H180Z" fill="black"/>
<path d="M200.856 84.0611C203.834 84.0611 205.688 82.022 205.688 78.9986C205.688 75.9559 203.834 73.9233 200.856 73.9233C197.877 73.9233 196.023 75.9559 196.023 78.9986C196.023 82.022 197.877 84.0611 200.856 84.0611ZM200.868 81.9517C199.494 81.9517 198.791 80.6924 198.791 78.9794C198.791 77.2663 199.494 76.0007 200.868 76.0007C202.217 76.0007 202.92 77.2663 202.92 78.9794C202.92 80.6924 202.217 81.9517 200.868 81.9517Z" fill="black"/>
<path d="M207.51 83.8693H210.194V82.2969H210.316C210.693 83.115 211.518 84.0291 213.103 84.0291C215.34 84.0291 217.085 82.2585 217.085 78.973C217.085 75.598 215.263 73.9233 213.109 73.9233C211.466 73.9233 210.68 74.9013 210.316 75.7003H210.233V70.7784H207.51V83.8693ZM210.175 78.9602C210.175 77.2088 210.917 76.0902 212.24 76.0902C213.589 76.0902 214.305 77.2599 214.305 78.9602C214.305 80.6733 213.576 81.8622 212.24 81.8622C210.93 81.8622 210.175 80.7116 210.175 78.9602Z" fill="black"/>
<path d="M218.902 83.8693H221.625V74.0511H218.902V83.8693ZM220.27 72.7855C221.082 72.7855 221.746 72.1655 221.746 71.4048C221.746 70.6505 221.082 70.0305 220.27 70.0305C219.464 70.0305 218.8 70.6505 218.8 71.4048C218.8 72.1655 219.464 72.7855 220.27 72.7855Z" fill="black"/>
<path d="M226.529 70.7784H223.806V83.8693H226.529V70.7784Z" fill="black"/>
<path d="M228.711 83.8693H231.434V74.0511H228.711V83.8693ZM230.078 72.7855C230.89 72.7855 231.555 72.1655 231.555 71.4048C231.555 70.6505 230.89 70.0305 230.078 70.0305C229.273 70.0305 228.608 70.6505 228.608 71.4048C228.608 72.1655 229.273 72.7855 230.078 72.7855Z" fill="black"/>
<path d="M238.837 74.0511H236.99V71.6988H234.267V74.0511H232.925V76.0966H234.267V81.2102C234.254 83.1342 235.564 84.0866 237.54 84.0035C238.243 83.978 238.741 83.8373 239.016 83.7478L238.588 81.7216C238.454 81.7471 238.166 81.8111 237.91 81.8111C237.367 81.8111 236.99 81.6065 236.99 80.8523V76.0966H238.837V74.0511Z" fill="black"/>
<path d="M242.292 87.5319C244.318 87.5319 245.399 86.5028 245.948 84.9304L249.764 74.0639L246.882 74.0511L244.83 81.2613H244.727L242.695 74.0511H239.831L243.353 84.1505L243.193 84.566C242.81 85.4545 242.151 85.5184 241.193 85.218L240.579 87.2571C240.969 87.4169 241.602 87.5319 242.292 87.5319Z" fill="black"/>
<path d="M262.477 74.5433H265.129C265.091 72.2102 263.173 70.5994 260.259 70.5994C257.388 70.5994 255.286 72.1846 255.298 74.5625C255.292 76.4929 256.653 77.5987 258.865 78.1292L260.29 78.4872C261.716 78.8324 262.509 79.2415 262.515 80.1236C262.509 81.0824 261.601 81.7344 260.195 81.7344C258.756 81.7344 257.721 81.0696 257.631 79.7592H254.953C255.023 82.5909 257.05 84.0547 260.227 84.0547C263.423 84.0547 265.302 82.527 265.308 80.1299C265.302 77.9503 263.659 76.7933 261.384 76.2819L260.207 76.0007C259.07 75.7386 258.117 75.3167 258.136 74.3771C258.136 73.5334 258.884 72.9133 260.239 72.9133C261.562 72.9133 262.374 73.5142 262.477 74.5433Z" fill="black"/>
<path d="M271.555 84.0611C274.534 84.0611 276.387 82.022 276.387 78.9986C276.387 75.9559 274.534 73.9233 271.555 73.9233C268.576 73.9233 266.722 75.9559 266.722 78.9986C266.722 82.022 268.576 84.0611 271.555 84.0611ZM271.568 81.9517C270.193 81.9517 269.49 80.6924 269.49 78.9794C269.49 77.2663 270.193 76.0007 271.568 76.0007C272.916 76.0007 273.619 77.2663 273.619 78.9794C273.619 80.6924 272.916 81.9517 271.568 81.9517Z" fill="black"/>
<path d="M280.881 70.7784H278.158V83.8693H280.881V70.7784Z" fill="black"/>
<path d="M289.358 79.6889C289.365 81.0057 288.463 81.696 287.485 81.696C286.456 81.696 285.792 80.9737 285.785 79.8167V74.0511H283.062V80.3025C283.069 82.5973 284.411 83.9971 286.386 83.9971C287.863 83.9971 288.924 83.2365 289.365 82.0859H289.467V83.8693H292.081V74.0511H289.358V79.6889Z" fill="black"/>
<path d="M299.482 74.0511H297.634V71.6988H294.911V74.0511H293.569V76.0966H294.911V81.2102C294.899 83.1342 296.209 84.0866 298.184 84.0035C298.887 83.978 299.386 83.8373 299.661 83.7478L299.232 81.7216C299.098 81.7471 298.811 81.8111 298.555 81.8111C298.012 81.8111 297.634 81.6065 297.634 80.8523V76.0966H299.482V74.0511Z" fill="black"/>
<path d="M301.256 83.8693H303.979V74.0511H301.256V83.8693ZM302.623 72.7855C303.435 72.7855 304.1 72.1655 304.1 71.4048C304.1 70.6505 303.435 70.0305 302.623 70.0305C301.818 70.0305 301.153 70.6505 301.153 71.4048C301.153 72.1655 301.818 72.7855 302.623 72.7855Z" fill="black"/>
<path d="M310.596 84.0611C313.575 84.0611 315.428 82.022 315.428 78.9986C315.428 75.9559 313.575 73.9233 310.596 73.9233C307.617 73.9233 305.763 75.9559 305.763 78.9986C305.763 82.022 307.617 84.0611 310.596 84.0611ZM310.609 81.9517C309.234 81.9517 308.531 80.6924 308.531 78.9794C308.531 77.2663 309.234 76.0007 310.609 76.0007C311.957 76.0007 312.661 77.2663 312.661 78.9794C312.661 80.6924 311.957 81.9517 310.609 81.9517Z" fill="black"/>
<path d="M319.922 78.1932C319.928 76.9275 320.683 76.1861 321.782 76.1861C322.875 76.1861 323.533 76.902 323.527 78.1037V83.8693H326.25V77.6179C326.25 75.3295 324.908 73.9233 322.862 73.9233C321.405 73.9233 320.35 74.6392 319.909 75.7834H319.794V74.0511H317.199V83.8693H319.922V78.1932Z" fill="black"/>
<path d="M336.565 76.8508C336.322 75.0419 334.865 73.9233 332.385 73.9233C329.873 73.9233 328.217 75.0866 328.224 76.9787C328.217 78.4488 329.144 79.4013 331.062 79.7848L332.762 80.1236C333.618 80.2961 334.008 80.6094 334.021 81.1015C334.008 81.6832 333.376 82.0987 332.423 82.0987C331.452 82.0987 330.806 81.6832 330.64 80.8842L327.961 81.0248C328.217 82.9041 329.815 84.0611 332.417 84.0611C334.961 84.0611 336.782 82.7635 336.789 80.8267C336.782 79.4076 335.856 78.5575 333.951 78.1676L332.174 77.8096C331.26 77.6115 330.921 77.2983 330.927 76.8253C330.921 76.2372 331.586 75.8537 332.43 75.8537C333.376 75.8537 333.938 76.3714 334.072 77.0042L336.565 76.8508Z" fill="black"/>
<path d="M180.422 133.371H189.268V131.089H183.19V127.963H188.789V125.681H183.19V122.562H189.243V120.28H180.422V133.371Z" fill="black"/>
<path d="M194.115 127.695C194.122 126.429 194.876 125.688 195.975 125.688C197.068 125.688 197.727 126.403 197.72 127.605V133.371H200.443V127.119C200.443 124.831 199.101 123.425 197.056 123.425C195.598 123.425 194.544 124.141 194.102 125.285H193.987V123.553H191.392V133.371H194.115V127.695Z" fill="black"/>
<path d="M207.013 137.193C209.819 137.193 211.813 135.915 211.813 133.467V123.553H209.109V125.202H209.007C208.643 124.403 207.844 123.425 206.201 123.425C204.047 123.425 202.225 125.099 202.225 128.442C202.225 131.709 203.996 133.23 206.207 133.23C207.773 133.23 208.649 132.444 209.007 131.632H209.122V133.428C209.122 134.713 208.259 135.237 207.077 135.237C205.875 135.237 205.268 134.713 205.044 134.183L202.526 134.521C202.852 136.004 204.366 137.193 207.013 137.193ZM207.07 131.185C205.734 131.185 205.006 130.124 205.006 128.43C205.006 126.761 205.722 125.592 207.07 125.592C208.393 125.592 209.135 126.71 209.135 128.43C209.135 130.162 208.381 131.185 207.07 131.185Z" fill="black"/>
<path d="M213.98 133.371H216.703V123.553H213.98V133.371ZM215.348 122.287C216.16 122.287 216.825 121.667 216.825 120.906C216.825 120.152 216.16 119.532 215.348 119.532C214.543 119.532 213.878 120.152 213.878 120.906C213.878 121.667 214.543 122.287 215.348 122.287Z" fill="black"/>
<path d="M221.607 127.695C221.614 126.429 222.368 125.688 223.468 125.688C224.561 125.688 225.219 126.403 225.213 127.605V133.371H227.936V127.119C227.936 124.831 226.593 123.425 224.548 123.425C223.09 123.425 222.036 124.141 221.595 125.285H221.48V123.553H218.884V133.371H221.607V127.695Z" fill="black"/>
<path d="M234.556 133.563C236.985 133.563 238.621 132.38 239.005 130.558L236.487 130.392C236.212 131.14 235.509 131.53 234.601 131.53C233.239 131.53 232.376 130.629 232.376 129.165V129.158H239.062V128.411C239.062 125.074 237.043 123.425 234.447 123.425C231.558 123.425 229.685 125.477 229.685 128.506C229.685 131.619 231.533 133.563 234.556 133.563ZM232.376 127.471C232.434 126.352 233.284 125.457 234.492 125.457C235.675 125.457 236.493 126.301 236.499 127.471H232.376Z" fill="black"/>
<path d="M245.314 133.563C247.743 133.563 249.379 132.38 249.763 130.558L247.244 130.392C246.969 131.14 246.266 131.53 245.359 131.53C243.997 131.53 243.134 130.629 243.134 129.165V129.158H249.82V128.411C249.82 125.074 247.8 123.425 245.205 123.425C242.316 123.425 240.443 125.477 240.443 128.506C240.443 131.619 242.29 133.563 245.314 133.563ZM243.134 127.471C243.192 126.352 244.042 125.457 245.25 125.457C246.433 125.457 247.251 126.301 247.257 127.471H243.134Z" fill="black"/>
<path d="M251.597 133.371H254.32V127.816C254.32 126.608 255.202 125.777 256.404 125.777C256.781 125.777 257.299 125.841 257.555 125.924V123.508C257.312 123.45 256.973 123.412 256.698 123.412C255.599 123.412 254.697 124.051 254.339 125.266H254.237V123.553H251.597V133.371Z" fill="black"/>
<path d="M258.963 133.371H261.686V123.553H258.963V133.371ZM260.33 122.287C261.142 122.287 261.807 121.667 261.807 120.906C261.807 120.152 261.142 119.532 260.33 119.532C259.525 119.532 258.86 120.152 258.86 120.906C258.86 121.667 259.525 122.287 260.33 122.287Z" fill="black"/>
<path d="M266.59 127.695C266.596 126.429 267.35 125.688 268.45 125.688C269.543 125.688 270.201 126.403 270.195 127.605V133.371H272.918V127.119C272.918 124.831 271.576 123.425 269.53 123.425C268.073 123.425 267.018 124.141 266.577 125.285H266.462V123.553H263.867V133.371H266.59V127.695Z" fill="black"/>
<path d="M279.487 137.193C282.293 137.193 284.288 135.915 284.288 133.467V123.553H281.584V125.202H281.482C281.117 124.403 280.318 123.425 278.676 123.425C276.521 123.425 274.7 125.099 274.7 128.442C274.7 131.709 276.47 133.23 278.682 133.23C280.248 133.23 281.124 132.444 281.482 131.632H281.597V133.428C281.597 134.713 280.734 135.237 279.551 135.237C278.35 135.237 277.742 134.713 277.519 134.183L275 134.521C275.326 136.004 276.841 137.193 279.487 137.193ZM279.545 131.185C278.209 131.185 277.48 130.124 277.48 128.43C277.48 126.761 278.196 125.592 279.545 125.592C280.868 125.592 281.61 126.71 281.61 128.43C281.61 130.162 280.855 131.185 279.545 131.185Z" fill="black"/>
<path d="M183.19 142.28H180.422V155.371H183.19V142.28Z" fill="black"/>
<path d="M188.139 149.695C188.145 148.429 188.899 147.688 189.999 147.688C191.092 147.688 191.75 148.403 191.744 149.605V155.371H194.467V149.119C194.467 146.831 193.124 145.425 191.079 145.425C189.622 145.425 188.567 146.141 188.126 147.285H188.011V145.553H185.416V155.371H188.139V149.695Z" fill="black"/>
<path d="M201.893 145.553H199.943V144.894C199.943 144.229 200.212 143.84 201.011 143.84C201.337 143.84 201.669 143.91 201.886 143.98L202.366 141.935C202.027 141.832 201.279 141.666 200.442 141.666C198.594 141.666 197.22 142.708 197.22 144.843V145.553H195.833V147.598H197.22V155.371H199.943V147.598H201.893V145.553Z" fill="black"/>
<path d="M203.556 155.371H206.279V149.816C206.279 148.608 207.161 147.777 208.363 147.777C208.74 147.777 209.258 147.841 209.514 147.924V145.508C209.271 145.45 208.932 145.412 208.657 145.412C207.558 145.412 206.656 146.051 206.298 147.266H206.196V145.553H203.556V155.371Z" fill="black"/>
<path d="M213.44 155.556C214.891 155.556 215.831 154.923 216.31 154.009H216.387V155.371H218.969V148.749C218.969 146.409 216.988 145.425 214.801 145.425C212.449 145.425 210.902 146.55 210.525 148.34L213.044 148.544C213.229 147.892 213.811 147.413 214.789 147.413C215.716 147.413 216.246 147.879 216.246 148.685V148.723C216.246 149.356 215.575 149.439 213.868 149.605C211.925 149.784 210.18 150.436 210.18 152.629C210.18 154.572 211.567 155.556 213.44 155.556ZM214.22 153.677C213.382 153.677 212.782 153.287 212.782 152.539C212.782 151.772 213.414 151.395 214.373 151.261C214.968 151.178 215.939 151.037 216.265 150.82V151.862C216.265 152.891 215.415 153.677 214.22 153.677Z" fill="black"/>
<path d="M229.251 148.352C229.008 146.543 227.55 145.425 225.07 145.425C222.558 145.425 220.903 146.588 220.909 148.48C220.903 149.95 221.83 150.903 223.747 151.286L225.447 151.625C226.304 151.798 226.694 152.111 226.707 152.603C226.694 153.185 226.061 153.6 225.109 153.6C224.137 153.6 223.491 153.185 223.325 152.386L220.647 152.526C220.903 154.406 222.501 155.563 225.102 155.563C227.646 155.563 229.468 154.265 229.474 152.328C229.468 150.909 228.541 150.059 226.636 149.669L224.859 149.311C223.945 149.113 223.607 148.8 223.613 148.327C223.607 147.739 224.271 147.355 225.115 147.355C226.061 147.355 226.624 147.873 226.758 148.506L229.251 148.352Z" fill="black"/>
<path d="M236.411 145.553H234.564V143.2H231.841V145.553H230.499V147.598H231.841V152.712C231.828 154.636 233.139 155.588 235.114 155.505C235.817 155.479 236.316 155.339 236.59 155.249L236.162 153.223C236.028 153.249 235.74 153.313 235.485 153.313C234.941 153.313 234.564 153.108 234.564 152.354V147.598H236.411V145.553Z" fill="black"/>
<path d="M238.185 155.371H240.908V149.816C240.908 148.608 241.79 147.777 242.992 147.777C243.369 147.777 243.887 147.841 244.143 147.924V145.508C243.9 145.45 243.561 145.412 243.286 145.412C242.187 145.412 241.285 146.051 240.927 147.266H240.825V145.553H238.185V155.371Z" fill="black"/>
<path d="M251.847 151.19C251.853 152.507 250.952 153.197 249.974 153.197C248.945 153.197 248.28 152.475 248.273 151.318V145.553H245.55V151.804C245.557 154.099 246.899 155.499 248.874 155.499C250.351 155.499 251.412 154.738 251.853 153.587H251.955V155.371H254.57V145.553H251.847V151.19Z" fill="black"/>
<path d="M261.184 155.563C263.798 155.563 265.441 154.028 265.569 151.772H262.999C262.839 152.82 262.149 153.408 261.216 153.408C259.944 153.408 259.119 152.341 259.119 150.462C259.119 148.608 259.95 147.547 261.216 147.547C262.213 147.547 262.852 148.205 262.999 149.183H265.569C265.454 146.914 263.734 145.425 261.171 145.425C258.192 145.425 256.351 147.489 256.351 150.5C256.351 153.485 258.16 155.563 261.184 155.563Z" fill="black"/>
<path d="M272.534 145.553H270.687V143.2H267.964V145.553H266.622V147.598H267.964V152.712C267.951 154.636 269.262 155.588 271.237 155.505C271.94 155.479 272.439 155.339 272.713 155.249L272.285 153.223C272.151 153.249 271.863 153.313 271.608 153.313C271.064 153.313 270.687 153.108 270.687 152.354V147.598H272.534V145.553Z" fill="black"/>
<path d="M280.604 151.19C280.611 152.507 279.71 153.197 278.732 153.197C277.702 153.197 277.038 152.475 277.031 151.318V145.553H274.308V151.804C274.315 154.099 275.657 155.499 277.632 155.499C279.109 155.499 280.17 154.738 280.611 153.587H280.713V155.371H283.327V145.553H280.604V151.19Z" fill="black"/>
<path d="M285.506 155.371H288.229V149.816C288.229 148.608 289.111 147.777 290.312 147.777C290.689 147.777 291.207 147.841 291.463 147.924V145.508C291.22 145.45 290.881 145.412 290.606 145.412C289.507 145.412 288.606 146.051 288.248 147.266H288.145V145.553H285.506V155.371Z" fill="black"/>
<path d="M296.888 155.563C299.317 155.563 300.953 154.38 301.337 152.558L298.819 152.392C298.544 153.14 297.841 153.53 296.933 153.53C295.571 153.53 294.708 152.629 294.708 151.165V151.158H301.395V150.411C301.395 147.074 299.375 145.425 296.779 145.425C293.89 145.425 292.017 147.477 292.017 150.506C292.017 153.619 293.865 155.563 296.888 155.563ZM294.708 149.471C294.766 148.352 295.616 147.457 296.824 147.457C298.007 147.457 298.825 148.301 298.831 149.471H294.708Z" fill="black"/>
<path d="M187.523 168.045H190.176C190.138 165.712 188.22 164.101 185.305 164.101C182.435 164.101 180.332 165.686 180.345 168.064C180.339 169.994 181.7 171.1 183.912 171.631L185.337 171.989C186.763 172.334 187.555 172.743 187.562 173.625C187.555 174.584 186.648 175.236 185.241 175.236C183.803 175.236 182.768 174.571 182.678 173.261H180C180.07 176.092 182.097 177.556 185.273 177.556C188.469 177.556 190.349 176.028 190.355 173.631C190.349 171.452 188.706 170.295 186.43 169.783L185.254 169.502C184.116 169.24 183.164 168.818 183.183 167.879C183.183 167.035 183.931 166.415 185.286 166.415C186.609 166.415 187.421 167.016 187.523 168.045Z" fill="black"/>
<path d="M196.602 177.563C199.58 177.563 201.434 175.523 201.434 172.5C201.434 169.457 199.58 167.425 196.602 167.425C193.623 167.425 191.769 169.457 191.769 172.5C191.769 175.523 193.623 177.563 196.602 177.563ZM196.615 175.453C195.24 175.453 194.537 174.194 194.537 172.481C194.537 170.768 195.24 169.502 196.615 169.502C197.963 169.502 198.666 170.768 198.666 172.481C198.666 174.194 197.963 175.453 196.615 175.453Z" fill="black"/>
<path d="M205.928 164.28H203.205V177.371H205.928V164.28Z" fill="black"/>
<path d="M214.405 173.19C214.412 174.507 213.51 175.197 212.532 175.197C211.503 175.197 210.838 174.475 210.832 173.318V167.553H208.109V173.804C208.115 176.099 209.458 177.499 211.433 177.499C212.909 177.499 213.971 176.738 214.412 175.587H214.514V177.371H217.128V167.553H214.405V173.19Z" fill="black"/>
<path d="M224.529 167.553H222.681V165.2H219.958V167.553H218.616V169.598H219.958V174.712C219.945 176.636 221.256 177.588 223.231 177.505C223.934 177.479 224.433 177.339 224.708 177.249L224.279 175.223C224.145 175.249 223.857 175.313 223.602 175.313C223.058 175.313 222.681 175.108 222.681 174.354V169.598H224.529V167.553Z" fill="black"/>
<path d="M226.302 177.371H229.025V167.553H226.302V177.371ZM227.67 166.287C228.482 166.287 229.147 165.667 229.147 164.906C229.147 164.152 228.482 163.532 227.67 163.532C226.865 163.532 226.2 164.152 226.2 164.906C226.2 165.667 226.865 166.287 227.67 166.287Z" fill="black"/>
<path d="M235.643 177.563C238.621 177.563 240.475 175.523 240.475 172.5C240.475 169.457 238.621 167.425 235.643 167.425C232.664 167.425 230.81 169.457 230.81 172.5C230.81 175.523 232.664 177.563 235.643 177.563ZM235.656 175.453C234.281 175.453 233.578 174.194 233.578 172.481C233.578 170.768 234.281 169.502 235.656 169.502C237.004 169.502 237.707 170.768 237.707 172.481C237.707 174.194 237.004 175.453 235.656 175.453Z" fill="black"/>
<path d="M244.969 171.695C244.975 170.429 245.729 169.688 246.829 169.688C247.922 169.688 248.58 170.403 248.574 171.605V177.371H251.297V171.119C251.297 168.831 249.955 167.425 247.909 167.425C246.452 167.425 245.397 168.141 244.956 169.285H244.841V167.553H242.246V177.371H244.969V171.695Z" fill="black"/>
<path d="M261.612 170.352C261.369 168.543 259.912 167.425 257.432 167.425C254.92 167.425 253.264 168.588 253.27 170.48C253.264 171.95 254.191 172.903 256.108 173.286L257.809 173.625C258.665 173.798 259.055 174.111 259.068 174.603C259.055 175.185 258.422 175.6 257.47 175.6C256.498 175.6 255.853 175.185 255.687 174.386L253.008 174.526C253.264 176.406 254.862 177.563 257.464 177.563C260.008 177.563 261.829 176.265 261.836 174.328C261.829 172.909 260.903 172.059 258.998 171.669L257.221 171.311C256.307 171.113 255.968 170.8 255.974 170.327C255.968 169.739 256.633 169.355 257.476 169.355C258.422 169.355 258.985 169.873 259.119 170.506L261.612 170.352Z" fill="black"/>
<path d="M182.966 223.401L183.938 220.416H188.661L189.633 223.401H192.599L188.086 210.31H184.519L180 223.401H182.966ZM184.641 218.256L186.251 213.302H186.354L187.964 218.256H184.641Z" fill="black"/>
<path d="M198.102 223.593C200.717 223.593 202.359 222.059 202.487 219.803H199.918C199.758 220.851 199.067 221.439 198.134 221.439C196.862 221.439 196.038 220.371 196.038 218.492C196.038 216.638 196.869 215.577 198.134 215.577C199.131 215.577 199.771 216.236 199.918 217.214H202.487C202.372 214.945 200.653 213.455 198.089 213.455C195.111 213.455 193.27 215.52 193.27 218.531C193.27 221.516 195.079 223.593 198.102 223.593Z" fill="black"/>
<path d="M208.667 223.593C211.645 223.593 213.499 221.554 213.499 218.531C213.499 215.488 211.645 213.455 208.667 213.455C205.688 213.455 203.834 215.488 203.834 218.531C203.834 221.554 205.688 223.593 208.667 223.593ZM208.68 221.484C207.305 221.484 206.602 220.224 206.602 218.511C206.602 216.798 207.305 215.533 208.68 215.533C210.028 215.533 210.731 216.798 210.731 218.511C210.731 220.224 210.028 221.484 208.68 221.484Z" fill="black"/>
<path d="M221.566 219.221C221.572 220.538 220.671 221.228 219.693 221.228C218.664 221.228 217.999 220.506 217.993 219.349V213.583H215.27V219.835C215.276 222.129 216.618 223.529 218.594 223.529C220.07 223.529 221.131 222.768 221.572 221.618H221.675V223.401H224.289V213.583H221.566V219.221Z" fill="black"/>
<path d="M234.636 216.383C234.393 214.574 232.936 213.455 230.456 213.455C227.944 213.455 226.288 214.619 226.294 216.511C226.288 217.981 227.215 218.933 229.132 219.317L230.833 219.656C231.689 219.828 232.079 220.141 232.092 220.634C232.079 221.215 231.446 221.631 230.494 221.631C229.522 221.631 228.877 221.215 228.711 220.416L226.032 220.557C226.288 222.436 227.886 223.593 230.488 223.593C233.032 223.593 234.853 222.295 234.86 220.359C234.853 218.94 233.926 218.089 232.022 217.7L230.245 217.342C229.331 217.143 228.992 216.83 228.998 216.357C228.992 215.769 229.657 215.386 230.5 215.386C231.446 215.386 232.009 215.903 232.143 216.536L234.636 216.383Z" fill="black"/>
<path d="M241.797 213.583H239.949V211.231H237.226V213.583H235.884V215.629H237.226V220.742C237.214 222.666 238.524 223.619 240.499 223.536C241.202 223.51 241.701 223.369 241.976 223.28L241.547 221.254C241.413 221.279 241.126 221.343 240.87 221.343C240.327 221.343 239.949 221.138 239.949 220.384V215.629H241.797V213.583Z" fill="black"/>
<path d="M243.57 223.401H246.294V213.583H243.57V223.401ZM244.938 212.317C245.75 212.317 246.415 211.697 246.415 210.937C246.415 210.183 245.75 209.562 244.938 209.562C244.133 209.562 243.468 210.183 243.468 210.937C243.468 211.697 244.133 212.317 244.938 212.317Z" fill="black"/>
<path d="M252.911 223.593C255.525 223.593 257.168 222.059 257.296 219.803H254.726C254.566 220.851 253.876 221.439 252.943 221.439C251.671 221.439 250.846 220.371 250.846 218.492C250.846 216.638 251.677 215.577 252.943 215.577C253.94 215.577 254.579 216.236 254.726 217.214H257.296C257.181 214.945 255.461 213.455 252.898 213.455C249.919 213.455 248.078 215.52 248.078 218.531C248.078 221.516 249.887 223.593 252.911 223.593Z" fill="black"/>
<path d="M183.458 245.587C184.909 245.587 185.849 244.954 186.328 244.04H186.405V245.401H188.987V238.779C188.987 236.44 187.006 235.455 184.82 235.455C182.467 235.455 180.92 236.58 180.543 238.37L183.062 238.575C183.247 237.923 183.829 237.443 184.807 237.443C185.734 237.443 186.264 237.91 186.264 238.715V238.754C186.264 239.386 185.593 239.469 183.886 239.636C181.943 239.815 180.198 240.467 180.198 242.659C180.198 244.602 181.585 245.587 183.458 245.587ZM184.238 243.707C183.401 243.707 182.8 243.317 182.8 242.57C182.8 241.803 183.433 241.425 184.391 241.291C184.986 241.208 185.957 241.067 186.283 240.85V241.892C186.283 242.921 185.433 243.707 184.238 243.707Z" fill="black"/>
<path d="M193.823 239.725C193.829 238.46 194.583 237.718 195.683 237.718C196.776 237.718 197.434 238.434 197.428 239.636V245.401H200.151V239.15C200.151 236.862 198.809 235.455 196.763 235.455C195.306 235.455 194.251 236.171 193.81 237.315H193.695V235.583H191.1V245.401H193.823V239.725Z" fill="black"/>
<path d="M205.915 245.561C207.5 245.561 208.325 244.647 208.702 243.829H208.817V245.401H211.502V232.31H208.785V237.232H208.702C208.338 236.433 207.551 235.455 205.909 235.455C203.754 235.455 201.933 237.13 201.933 240.505C201.933 243.79 203.678 245.561 205.915 245.561ZM206.778 243.394C205.442 243.394 204.713 242.205 204.713 240.492C204.713 238.792 205.429 237.622 206.778 237.622C208.101 237.622 208.843 238.741 208.843 240.492C208.843 242.244 208.088 243.394 206.778 243.394Z" fill="black"/>
<path d="M217.906 245.401H220.629V239.508C220.629 238.421 221.32 237.699 222.227 237.699C223.122 237.699 223.723 238.312 223.723 239.278V245.401H226.363V239.406C226.363 238.389 226.945 237.699 227.936 237.699C228.805 237.699 229.457 238.242 229.457 239.335V245.401H232.173V238.798C232.173 236.67 230.908 235.455 229.08 235.455C227.642 235.455 226.523 236.19 226.12 237.315H226.018C225.705 236.178 224.701 235.455 223.352 235.455C222.029 235.455 221.026 236.158 220.617 237.315H220.502V235.583H217.906V245.401Z" fill="black"/>
<path d="M234.324 245.401H237.047V235.583H234.324V245.401ZM235.692 234.317C236.504 234.317 237.169 233.697 237.169 232.937C237.169 232.183 236.504 231.562 235.692 231.562C234.887 231.562 234.222 232.183 234.222 232.937C234.222 233.697 234.887 234.317 235.692 234.317Z" fill="black"/>
<path d="M243.665 245.593C246.279 245.593 247.922 244.059 248.05 241.803H245.48C245.32 242.851 244.63 243.439 243.697 243.439C242.425 243.439 241.6 242.371 241.6 240.492C241.6 238.638 242.431 237.577 243.697 237.577C244.694 237.577 245.333 238.236 245.48 239.214H248.05C247.935 236.945 246.215 235.455 243.652 235.455C240.673 235.455 238.832 237.52 238.832 240.531C238.832 243.516 240.641 245.593 243.665 245.593Z" fill="black"/>
<path d="M249.793 245.401H252.516V239.847C252.516 238.638 253.398 237.808 254.6 237.808C254.977 237.808 255.495 237.871 255.751 237.955V235.538C255.508 235.481 255.169 235.442 254.894 235.442C253.795 235.442 252.893 236.082 252.535 237.296H252.433V235.583H249.793V245.401Z" fill="black"/>
<path d="M261.137 245.593C264.116 245.593 265.97 243.554 265.97 240.531C265.97 237.488 264.116 235.455 261.137 235.455C258.159 235.455 256.305 237.488 256.305 240.531C256.305 243.554 258.159 245.593 261.137 245.593ZM261.15 243.484C259.776 243.484 259.073 242.224 259.073 240.511C259.073 238.798 259.776 237.533 261.15 237.533C262.499 237.533 263.202 238.798 263.202 240.511C263.202 242.224 262.499 243.484 261.15 243.484Z" fill="black"/>
<path d="M272.176 245.593C274.791 245.593 276.434 244.059 276.561 241.803H273.992C273.832 242.851 273.142 243.439 272.208 243.439C270.936 243.439 270.112 242.371 270.112 240.492C270.112 238.638 270.943 237.577 272.208 237.577C273.206 237.577 273.845 238.236 273.992 239.214H276.561C276.446 236.945 274.727 235.455 272.164 235.455C269.185 235.455 267.344 237.52 267.344 240.531C267.344 243.516 269.153 245.593 272.176 245.593Z" fill="black"/>
<path d="M281.028 232.31H278.305V245.401H281.028V232.31Z" fill="black"/>
<path d="M283.209 245.401H285.932V235.583H283.209V245.401ZM284.577 234.317C285.389 234.317 286.054 233.697 286.054 232.937C286.054 232.183 285.389 231.562 284.577 231.562C283.772 231.562 283.107 232.183 283.107 232.937C283.107 233.697 283.772 234.317 284.577 234.317Z" fill="black"/>
<path d="M288.113 245.401H290.836V239.508C290.836 238.421 291.527 237.699 292.434 237.699C293.329 237.699 293.93 238.312 293.93 239.278V245.401H296.57V239.406C296.57 238.389 297.152 237.699 298.143 237.699C299.012 237.699 299.664 238.242 299.664 239.335V245.401H302.381V238.798C302.381 236.67 301.115 235.455 299.287 235.455C297.849 235.455 296.73 236.19 296.327 237.315H296.225C295.912 236.178 294.908 235.455 293.559 235.455C292.236 235.455 291.233 236.158 290.824 237.315H290.709V235.583H288.113V245.401Z" fill="black"/>
<path d="M307.331 245.587C308.782 245.587 309.722 244.954 310.201 244.04H310.278V245.401H312.86V238.779C312.86 236.44 310.879 235.455 308.693 235.455C306.34 235.455 304.793 236.58 304.416 238.37L306.935 238.575C307.12 237.923 307.702 237.443 308.68 237.443C309.607 237.443 310.137 237.91 310.137 238.715V238.754C310.137 239.386 309.466 239.469 307.759 239.636C305.816 239.815 304.071 240.467 304.071 242.659C304.071 244.602 305.458 245.587 307.331 245.587ZM308.111 243.707C307.274 243.707 306.673 243.317 306.673 242.57C306.673 241.803 307.306 241.425 308.264 241.291C308.859 241.208 309.83 241.067 310.156 240.85V241.892C310.156 242.921 309.306 243.707 308.111 243.707Z" fill="black"/>
<path d="M320.195 235.583H318.348V233.231H315.625V235.583H314.282V237.629H315.625V242.742C315.612 244.666 316.922 245.619 318.898 245.536C319.601 245.51 320.099 245.369 320.374 245.28L319.946 243.254C319.812 243.279 319.524 243.343 319.268 243.343C318.725 243.343 318.348 243.138 318.348 242.384V237.629H320.195V235.583Z" fill="black"/>
<path d="M326.338 245.593C328.767 245.593 330.403 244.411 330.787 242.589L328.268 242.423C327.993 243.17 327.29 243.56 326.383 243.56C325.021 243.56 324.158 242.659 324.158 241.195V241.189H330.844V240.441C330.844 237.104 328.824 235.455 326.229 235.455C323.34 235.455 321.467 237.507 321.467 240.537C321.467 243.65 323.314 245.593 326.338 245.593ZM324.158 239.501C324.216 238.383 325.066 237.488 326.274 237.488C327.456 237.488 328.275 238.332 328.281 239.501H324.158Z" fill="black"/>
</g>
<defs>
<clipPath id="clip0">
<rect x="180" y="2" width="156.789" height="243.593" fill="white"/>
</clipPath>
</defs>
</svg>
