<svg width="94" height="83" viewBox="0 0 94 83" fill="none" xmlns="http://www.w3.org/2000/svg">
<rect x="0.5" width="93" height="83" fill="white"/>
<path d="M83.3677 21.4285L11.2353 72.2815M13.0673 9.12793L55.5253 66.242M13.0673 9.12793L9.54419 74.1538L55.5253 66.242M13.0673 9.12793L85.2802 19.9387L55.5253 66.242" stroke="#459C9D" stroke-width="2" stroke-miterlimit="10" stroke-linecap="round" stroke-linejoin="round"/>
<path d="M78.6738 21.7556C80.1948 24.6986 83.8059 25.8534 86.7569 24.3249C89.7163 22.8119 90.844 19.1816 89.3261 16.2444C87.8047 13.3005 84.1919 12.1459 81.2403 13.6765C78.2889 15.207 77.1533 18.8134 78.6738 21.7556Z" fill="white" stroke="#459C9D" stroke-width="2"/>
<path d="M59.5113 70.6714C56.9143 71.98 53.6932 70.9935 52.3443 68.477C50.9955 65.9806 52.0021 62.8803 54.6193 61.5718C57.2163 60.2833 60.4373 61.2497 61.7862 63.7662C63.135 66.2827 62.1284 69.3628 59.5113 70.6714Z" fill="white" stroke="#459C9D" stroke-width="2" stroke-miterlimit="10" stroke-linecap="round" stroke-linejoin="round"/>
<path d="M12.7652 78.4212C10.1681 79.7297 6.94706 78.7433 5.59823 76.2269C4.24939 73.7305 5.25596 70.6302 7.8731 69.3216C10.4701 68.0131 13.6912 68.9995 15.04 71.5159C16.3889 74.0324 15.3823 77.1126 12.7652 78.4212Z" fill="white" stroke="#459C9D" stroke-width="2" stroke-miterlimit="10" stroke-linecap="round" stroke-linejoin="round"/>
<path d="M16.7111 13.6783C14.094 14.9869 10.893 14.0004 9.5442 11.4839C8.19537 8.96743 9.20197 5.88727 11.8191 4.5787C14.4161 3.27013 17.6372 4.25664 18.986 6.77312C20.3349 9.2896 19.3283 12.3698 16.7111 13.6783Z" fill="white" stroke="#459C9D" stroke-width="2" stroke-miterlimit="10" stroke-linecap="round" stroke-linejoin="round"/>
</svg>
