<svg width="94" height="83" viewBox="0 0 94 83" fill="none" xmlns="http://www.w3.org/2000/svg">
<rect x="0.5" width="93" height="83" fill="white"/>
<path d="M81.7546 3H30.268V70.7279H81.7546V3Z" fill="white"/>
<path d="M81.7546 3H30.268V70.7279H81.7546V3Z" stroke="#459C9D" stroke-width="2" stroke-miterlimit="10" stroke-linecap="round" stroke-linejoin="round"/>
<path d="M39.0232 57.8096H72.999M39.0232 47.2809H72.999M39.0232 36.7333H72.999M39.0232 26.1858H72.999M39.0232 15.6384H72.999" stroke="#459C9D" stroke-width="2" stroke-miterlimit="10" stroke-linecap="round" stroke-linejoin="round"/>
<path d="M13 27.4921V80.9389H62.4331V15.4139H24.2009" fill="white"/>
<path d="M13 27.4921V80.9389H62.4331V15.4139H24.2009" stroke="#459C9D" stroke-width="2" stroke-miterlimit="10" stroke-linecap="round" stroke-linejoin="round"/>
<path d="M13 27.2308H23.9208V15.4139L13 27.2308Z" fill="white"/>
<path d="M13 27.2308H23.9208V15.4139L13 27.2308Z" stroke="#459C9D" stroke-width="2" stroke-miterlimit="10" stroke-linecap="round" stroke-linejoin="round"/>
<path d="M39.4898 30.4785C39.4898 30.4785 32.6199 36.5456 29.633 47.3171C25.75 61.3368 37.6416 66.7506 39.4898 66.7506C41.3566 66.7506 53.2481 61.3181 49.3465 47.3171C46.3596 36.5456 39.4898 30.4785 39.4898 30.4785Z" fill="white"/>
<path d="M39.4898 30.4785C39.4898 30.4785 32.6199 36.5456 29.633 47.3171C25.75 61.3368 37.6416 66.7506 39.4898 66.7506C41.3566 66.7506 53.2481 61.3181 49.3465 47.3171C46.3596 36.5456 39.4898 30.4785 39.4898 30.4785Z" stroke="#459C9D" stroke-width="2" stroke-miterlimit="10" stroke-linecap="round" stroke-linejoin="round"/>
<path d="M39.5092 51.7048V72.9864" stroke="#459C9D" stroke-width="2" stroke-miterlimit="10" stroke-linecap="round" stroke-linejoin="round"/>
</svg>
