<svg width="94" height="83" viewBox="0 0 94 83" fill="none" xmlns="http://www.w3.org/2000/svg">
<g clip-path="url(#clip0)">
<rect x="0.5" width="93" height="83" fill="white"/>
<g style="mix-blend-mode:multiply">
<path d="M47.0001 103C80.681 103 108 75.6989 108 41.9999C108 8.319 80.681 -19.0001 47.0001 -19.0001C13.3011 -19.0001 -14 8.30083 -14 41.9999C-14 75.6989 13.3192 103 47.0001 103Z" fill="white"/>
<path d="M87.6064 49.7611V50.7063H65.0494V49.7611C65.0494 44.1991 70.1206 39.6368 76.3369 39.6368C82.5351 39.6368 87.6064 44.1991 87.6064 49.7611Z" fill="white"/>
<path d="M76.0642 23.7144C79.5723 23.7144 82.4078 26.568 82.4078 30.0579C82.4078 33.5659 79.5723 36.4015 76.0642 36.4015C72.5562 36.4015 69.7207 33.5659 69.7207 30.0579C69.7207 26.568 72.5562 23.7144 76.0642 23.7144Z" fill="white"/>
<path d="M58.4149 39.1636V40.1088H35.8581V39.1636C35.8581 33.6016 40.9292 29.0575 47.1456 29.0575C53.3255 29.0575 58.4149 33.6016 58.4149 39.1636Z" fill="white"/>
<path d="M46.8543 13.1365C50.3623 13.1365 53.1978 15.972 53.1978 19.4801C53.1978 22.9699 50.3623 25.8054 46.8543 25.8054C43.3463 25.8054 40.5108 22.9699 40.5108 19.4801C40.5108 15.972 43.3463 13.1365 46.8543 13.1365Z" fill="white"/>
<path d="M28.6598 49.7611V50.7063H6.10295V49.7611C6.10295 44.1991 11.1742 39.6368 17.3723 39.6368C23.5887 39.6368 28.6598 44.1991 28.6598 49.7611Z" fill="white"/>
<path d="M17.1182 23.7144C20.6081 23.7144 23.4618 26.568 23.4618 30.0579C23.4618 33.5659 20.6081 36.4015 17.1182 36.4015C13.6102 36.4015 10.7747 33.5659 10.7747 30.0579C10.7747 26.568 13.6102 23.7144 17.1182 23.7144Z" fill="white"/>
<path d="M4.37667 70.7368H89.6422H4.37667ZM34.1496 47.162H59.3785H34.1496ZM59.8511 57.1955H89.6422H59.8511ZM4.37667 57.1955H34.1678H4.37667ZM59.3785 57.1955V47.162V57.1955ZM34.1496 57.1955V47.162V57.1955ZM89.6422 70.7368V57.1955V70.7368ZM4.37667 70.7368V57.1955V70.7368ZM87.4973 50.6701V49.7249C87.4973 44.1811 82.4262 39.637 76.2644 39.637C70.0663 39.637 65.0131 44.1811 65.0131 49.7249V50.6701H87.4973ZM69.6664 30.1126C69.6664 33.6025 72.5019 36.4198 75.9917 36.4198C79.4816 36.4198 82.3171 33.6025 82.3171 30.1126C82.3171 26.6409 79.4816 23.8054 75.9917 23.8054C72.4837 23.7872 69.6664 26.6409 69.6664 30.1126ZM28.7149 50.6701V49.7249C28.7149 44.1811 23.6437 39.637 17.4637 39.637C11.2837 39.637 6.2307 44.1811 6.2307 49.7249V50.6701H28.7149ZM10.8839 30.1126C10.8839 33.6025 13.7193 36.4198 17.2092 36.4198C20.6991 36.4198 23.5347 33.6025 23.5347 30.1126C23.5347 26.6409 20.6991 23.7872 17.2092 23.7872C13.7012 23.7872 10.8839 26.6409 10.8839 30.1126ZM58.3787 40.1096V39.1644C58.3787 33.6206 53.3076 29.0947 47.1276 29.0947C40.9476 29.0947 35.8763 33.6206 35.8763 39.1644V40.1096H58.3787ZM40.5296 19.5703C40.5296 23.042 43.365 25.8775 46.8549 25.8775C50.3448 25.8775 53.1803 23.0601 53.1803 19.5703C53.1803 16.0804 50.3448 13.2631 46.8549 13.2631C43.365 13.2631 40.5296 16.0804 40.5296 19.5703Z" stroke="#459C9D" stroke-width="2" stroke-miterlimit="10" stroke-linecap="round" stroke-linejoin="round"/>
</g>
</g>
<defs>
<clipPath id="clip0">
<rect x="0.5" width="93" height="83" fill="white"/>
</clipPath>
</defs>
</svg>
