<svg width="94" height="83" viewBox="0 0 94 83" fill="none" xmlns="http://www.w3.org/2000/svg">
<rect x="0.5" width="93" height="83" fill="white"/>
<path d="M30.4533 67.6028V75H9V36.5345H30.4533V41.2127V67.6028ZM30.4533 67.6028C30.4533 71.6813 33.8321 75 37.9844 75H78.9574C81.4406 75 83.476 73.0207 83.476 70.5617C83.476 69.3421 82.9672 68.2426 82.153 67.4229C81.3389 66.6232 80.199 66.1233 78.9574 66.1233M79.914 45.871H80.4026C81.8681 45.871 83.1911 46.4707 84.1681 47.4104C85.1451 48.35 85.7354 49.6696 85.7354 51.109C85.7354 53.9879 83.3539 56.327 80.4026 56.327H76.291H73.4821M73.4617 45.871H79.9344C83.13 45.871 85.7354 43.3119 85.7354 40.1731C85.7354 38.6137 85.1044 37.2142 84.0867 36.1946C83.069 35.155 81.6441 34.5152 80.0565 34.4753C77.3087 34.4153 73.8485 34.3553 70.3272 34.3553C62.5112 34.3553 57.0359 32.9758 61.7581 25.4786C66.4599 17.9815 64.1395 8.28511 58.074 8.00522C51.9881 7.74532 55.7943 17.2617 50.95 21.1803C46.1057 25.0988 42.8897 24.6589 39.7756 32.1561C36.6614 39.6533 30.4533 41.2327 30.4533 41.2327M73.5432 66.1433H78.9574H80.9928C83.761 66.1433 86 63.9242 86 61.2052C85.9796 59.8457 85.43 58.6261 84.5141 57.7465C83.6185 56.8668 82.3769 56.307 80.9928 56.307H80.4026" stroke="#459C9D" stroke-width="2" stroke-miterlimit="10"/>
</svg>
