<svg width="94" height="83" viewBox="0 0 94 83" fill="none" xmlns="http://www.w3.org/2000/svg">
<rect x="0.5" width="93" height="83" fill="white"/>
<path d="M39.8907 65.8833V64.6275C39.8907 57.2521 33.1698 51.2208 24.9454 51.2208C16.721 51.2208 10 57.2521 10 64.6275V65.8833H39.8907ZM16.1904 39.6891C16.1904 44.323 19.9577 48.0903 24.5916 48.0903C29.2256 48.0903 32.9929 44.323 32.9929 39.6891C32.9929 35.0551 29.2256 31.2878 24.5916 31.2878C19.94 31.2878 16.1904 35.0375 16.1904 39.6891Z" stroke="#459C9D" stroke-width="2" stroke-miterlimit="10"/>
<path d="M85.9999 65.8833V64.6275C85.9999 57.2521 79.2789 51.2208 71.0546 51.2208C62.8302 51.2208 56.1092 57.2521 56.1092 64.6275V65.8833H85.9999ZM62.2818 39.6891C62.2818 44.323 66.0491 48.0903 70.6831 48.0903C75.317 48.0903 79.0843 44.323 79.0843 39.6891C79.0843 35.0551 75.317 31.2878 70.6831 31.2878C66.0491 31.2878 62.2818 35.0375 62.2818 39.6891Z" stroke="#459C9D" stroke-width="2" stroke-miterlimit="10"/>
<path d="M66.3148 76.2482V74.7095C66.3148 65.6715 58.0728 58.2785 48.0089 58.2785C37.9275 58.2785 29.7031 65.6715 29.7031 74.7095V76.2482H66.3148ZM37.2553 44.1643C37.2553 49.8418 41.8716 54.458 47.5491 54.458C53.2442 54.458 57.8428 49.8418 57.8428 44.1643C57.8428 38.4691 53.2265 33.8705 47.5491 33.8705C41.8716 33.8528 37.2553 38.4691 37.2553 44.1643Z" fill="white" stroke="#459C9D" stroke-width="2" stroke-miterlimit="10"/>
<path d="M70.8425 15.7408L69.3568 13.0702C69.1092 12.628 68.7378 12.2742 68.2956 12.0266L65.5895 10.5586L68.1188 9.19676C68.6848 8.89608 69.1446 8.43613 69.4453 7.88784L70.8249 5.39404L72.2398 7.94095C72.5228 8.45387 72.9473 8.87836 73.4779 9.16135L76.0601 10.5586L73.7785 11.7967C73.0534 12.1858 72.4697 12.7695 72.0806 13.4769L70.8425 15.7408ZM25.1574 15.7408L23.6718 13.0702C23.4241 12.628 23.0527 12.2742 22.6105 12.0266L19.9044 10.5586L22.4337 9.19676C22.9996 8.89608 23.4595 8.43613 23.7602 7.88784L25.1397 5.39404L26.5547 7.94095C26.8377 8.45387 27.2622 8.87836 27.7928 9.16135L30.3751 10.5586L28.0935 11.7967C27.3683 12.1858 26.7847 12.7695 26.3955 13.4769L25.1574 15.7408ZM47.9911 23.5938L46.5055 20.9231C46.2578 20.481 45.8864 20.1272 45.4442 19.8796L42.7382 18.4115L45.2674 17.0497C45.8333 16.749 46.2932 16.2891 46.5939 15.7408L47.9734 13.247L49.3884 15.7939C49.6714 16.3068 50.0959 16.7313 50.6265 17.0143L53.2087 18.4115L50.9272 19.6496C50.202 20.0387 49.6183 20.6224 49.2292 21.3299L47.9911 23.5938Z" stroke="#459C9D" stroke-width="2" stroke-miterlimit="10"/>
</svg>
