<svg width="94" height="83" viewBox="0 0 94 83" fill="none" xmlns="http://www.w3.org/2000/svg">
<g clip-path="url(#clip0)">
<rect x="0.5" width="93" height="83" fill="white"/>
<path d="M50.5 102C86.4056 102 115.5 72.9055 115.5 37C115.5 1.09447 86.4056 -28 50.5 -28C14.5945 -28 -14.5 1.09447 -14.5 37C-14.5 72.9055 14.6142 102 50.5 102Z" fill="white"/>
<path d="M18.0005 77.4938H75.0674V3.43872H18.0005V77.4938ZM26.4454 28.7734H64.91H26.4454ZM26.4454 37.7104H64.91H26.4454ZM31.1895 46.6277H60.1462H31.1895ZM66.3666 64.7576C66.3666 68.1828 63.591 70.9781 60.1462 70.9781C56.721 70.9781 53.9454 68.2025 53.9454 64.7576C53.9454 61.3324 56.721 58.5371 60.1462 58.5371C63.5714 58.5371 66.3666 61.3127 66.3666 64.7576Z" fill="white"/>
<path d="M18.0005 77.4938H75.0674V3.43872H18.0005V77.4938ZM26.4454 28.7734H64.91H26.4454ZM26.4454 37.7104H64.91H26.4454ZM31.1895 46.6277H60.1462H31.1895ZM66.3666 64.7576C66.3666 68.1828 63.591 70.9781 60.1462 70.9781C56.721 70.9781 53.9454 68.2025 53.9454 64.7576C53.9454 61.3324 56.721 58.5371 60.1462 58.5371C63.5714 58.5371 66.3666 61.3127 66.3666 64.7576Z" stroke="#459C9D" stroke-width="2" stroke-miterlimit="10" stroke-linecap="round" stroke-linejoin="round"/>
<path d="M18.0005 77.4938H75.0674V3.43872H18.0005V77.4938ZM26.4454 28.7734H64.91H26.4454ZM26.4454 37.7104H64.91H26.4454ZM66.3666 64.7576C66.3666 68.1828 63.591 70.9781 60.1462 70.9781C56.721 70.9781 53.9454 68.2025 53.9454 64.7576C53.9454 61.3324 56.721 58.5371 60.1462 58.5371C63.5714 58.5371 66.3666 61.3127 66.3666 64.7576Z" fill="white"/>
<path d="M18.0005 77.4938H75.0674V3.43872H18.0005V77.4938ZM26.4454 28.7734H64.91H26.4454ZM26.4454 37.7104H64.91H26.4454ZM66.3666 64.7576C66.3666 68.1828 63.591 70.9781 60.1462 70.9781C56.721 70.9781 53.9454 68.2025 53.9454 64.7576C53.9454 61.3324 56.721 58.5371 60.1462 58.5371C63.5714 58.5371 66.3666 61.3127 66.3666 64.7576Z" stroke="#459C9D" stroke-width="2" stroke-miterlimit="10" stroke-linecap="round" stroke-linejoin="round"/>
<path d="M54.614 4.26538L54.673 20.1118L60.2045 15.2103L65.4604 20.1118L65.421 4.26538" fill="white"/>
<path d="M54.614 4.26538L54.673 20.1118L60.2045 15.2103L65.4604 20.1118L65.421 4.26538" stroke="#459C9D" stroke-width="2" stroke-miterlimit="10" stroke-linecap="round" stroke-linejoin="round"/>
</g>
<defs>
<clipPath id="clip0">
<rect x="0.5" width="93" height="83" fill="white"/>
</clipPath>
</defs>
</svg>
